<svg xmlns="http://www.w3.org/2000/svg" xmlns:xlink="http://www.w3.org/1999/xlink" width="621.823" height="657.862" viewBox="0 0 621.823 657.862">
  <defs>
    <linearGradient id="linear-gradient" y1="0.5" x2="1" y2="0.5" gradientUnits="objectBoundingBox">
      <stop offset="0" stop-color="#d37897" stop-opacity="0"/>
      <stop offset="0.9" stop-color="#bc547c"/>
    </linearGradient>
  </defs>
  <g id="Group_957" data-name="Group 957" transform="translate(-7214.529 101.13)">
    <ellipse id="Ellipse_21" data-name="Ellipse 21" cx="292.235" cy="151.961" rx="292.235" ry="151.961" transform="translate(7251.883 230.42)" fill="#4b456f" opacity="0.1"/>
    <ellipse id="Ellipse_22" data-name="Ellipse 22" cx="72.806" cy="37.859" rx="72.806" ry="37.859" transform="translate(7249.981 433.831)" fill="#4b456f" opacity="0.2"/>
    <path id="Path_215" data-name="Path 215" d="M254.72,160.485Z" transform="translate(7386.279 -122.351)" fill="#d0ddfe"/>
    <path id="Path_216" data-name="Path 216" d="M290.054,169.918,217.19,127.845,265.728,99.81l72.884,42.053Z" transform="translate(7350.944 -131.784)" fill="#2d3057"/>
    <path id="Path_217" data-name="Path 217" d="M279.73,121.47l24.288,14.056L279.73,149.544Z" transform="translate(7409.826 -111.391)" fill="#2d3057"/>
    <path id="Path_218" data-name="Path 218" d="M292.25,128.7l24.288,14.056L292.25,156.793Z" transform="translate(7421.613 -104.584)" fill="#2d3057"/>
    <path id="Path_219" data-name="Path 219" d="M304.76,135.9l24.288,14.076L304.76,163.993Z" transform="translate(7433.392 -97.805)" fill="#2d3057"/>
    <path id="Path_220" data-name="Path 220" d="M317.27,143.15l24.288,14.056L317.27,171.243Z" transform="translate(7445.17 -90.979)" fill="#2d3057"/>
    <path id="Path_221" data-name="Path 221" d="M329.78,150.31l24.308,14.076L329.78,178.4Z" transform="translate(7456.948 -84.238)" fill="#2d3057"/>
    <path id="Path_241" data-name="Path 241" d="M314.059,153.514c-1.728-.272-3.689-.835-5.669-1.184.66,7.4,1.223,12.445,1.223,12.445.466,4.621,1.941,4.232,5.824,3.029,1.223-.388,2.5-6.1,3.708-14.037a38.567,38.567,0,0,1-5.087-.252Z" transform="translate(7436.81 -82.336)" fill="#eebcc5"/>
    <path id="Path_243" data-name="Path 243" d="M319.958,167.467c.194-2.427.369-4.854.563-7.281a2.445,2.445,0,0,0-.1-1.126,2.7,2.7,0,0,1-1.844.621,19.415,19.415,0,0,1-5.2-.408,11.028,11.028,0,0,1-3.883,6.64,25.238,25.238,0,0,0-4.951,6.116,1.689,1.689,0,0,0-.155,1.359,1.709,1.709,0,0,0,1.553.66,15.532,15.532,0,0,0,7.436-1.942A44.42,44.42,0,0,0,319.958,167.467Z" transform="translate(7432.969 -76)" fill="#4b456f"/>
    <ellipse id="Ellipse_25" data-name="Ellipse 25" cx="72.806" cy="37.859" rx="72.806" ry="37.859" transform="translate(7354.822 181.436)" fill="#4d4b7e" opacity="0.3"/>
    <path id="Path_255" data-name="Path 255" d="M129.826,147.49l14.231,32.734-20.347-11.3Z" transform="translate(7262.934 -86.893)" fill="none" stroke="#2d3057" stroke-linecap="round" stroke-miterlimit="10" stroke-width="0.75"/>
    <path id="Path_257" data-name="Path 257" d="M630.324,243.682,323.567,67.918a27.181,27.181,0,0,0-18.852-3.242c-8.7,1.941-16.852,4.737-16.833,12.348l-.544,285.206,27.006,15.959c-8.834,4.291-278.2,135.4-278.644,135.711l-.641,11.008A13.241,13.241,0,0,0,41.681,536.4C87.519,562.961,356.2,718.223,356.2,718.223a28.54,28.54,0,0,0,28.559,0L640.031,570.669a8.6,8.6,0,0,0,4.31-7.455l.447-294.856A28.54,28.54,0,0,0,630.324,243.682Z" transform="translate(7179.469 -165.32)" fill="#686868"/>
    <path id="Path_258" data-name="Path 258" d="M513.775,560.373,165.2,361.486,164.48,76.9a10.7,10.7,0,0,1,16-9.3L501.932,251.753a22.541,22.541,0,0,1,11.338,19.415Z" transform="translate(7301.318 -163.431)" fill="#433838"/>
    <path id="Path_259" data-name="Path 259" d="M171.87,75.43,490.994,258.61l.66,267.908L171.87,342.949Z" transform="translate(7308.276 -154.737)" fill="#fff"/>
    <path id="Path_1667" data-name="Path 1667" d="M635.311,418.156,286.908,217.23,40.532,359.62a10.678,10.678,0,0,0,0,18.5L361.268,563.477a22.561,22.561,0,0,0,22.58,0Z" transform="translate(7179.588 -21.233)" fill="#f9f9f9"/>
    <path id="Path_1668" data-name="Path 1668" d="M294.63,328.711l17.338,9.96,17.474-9.921L312.1,318.79Z" transform="translate(7423.854 74.386)" fill="#d0ddfe"/>
    <path id="Path_1669" data-name="Path 1669" d="M281.44,321.141l17.338,9.96,17.473-9.921-17.357-9.96Z" transform="translate(7411.436 67.259)" fill="#d0ddfe"/>
    <path id="Path_1670" data-name="Path 1670" d="M268.25,313.552l17.338,9.96,17.473-9.9L285.7,303.65Z" transform="translate(7399.018 60.132)" fill="#d0ddfe"/>
    <path id="Path_1671" data-name="Path 1671" d="M255.06,305.991l17.357,9.96,17.473-9.921-17.357-9.96Z" transform="translate(7386.6 52.995)" fill="#d0ddfe"/>
    <path id="Path_1672" data-name="Path 1672" d="M241.87,298.421l17.357,9.96L276.7,298.46l-17.338-9.96Z" transform="translate(7374.181 45.868)" fill="#d0ddfe"/>
    <path id="Path_1673" data-name="Path 1673" d="M228.68,290.8l17.357,9.96,17.473-9.9-17.338-9.96Z" transform="translate(7361.762 38.713)" fill="#d0ddfe"/>
    <path id="Path_1674" data-name="Path 1674" d="M215.49,283.271l17.357,9.96,17.473-9.921-17.338-9.96Z" transform="translate(7349.344 31.604)" fill="#d0ddfe"/>
    <path id="Path_1675" data-name="Path 1675" d="M202.31,275.7l17.338,9.96,17.473-9.921-17.338-9.96Z" transform="translate(7336.935 24.477)" fill="#d0ddfe"/>
    <path id="Path_1676" data-name="Path 1676" d="M189.12,268.112l17.338,9.96,17.474-9.9-17.357-9.96Z" transform="translate(7324.517 17.35)" fill="#d0ddfe"/>
    <path id="Path_1677" data-name="Path 1677" d="M175.93,260.551l17.338,9.96,17.473-9.921-17.2-9.96Z" transform="translate(7312.098 10.213)" fill="#d0ddfe"/>
    <path id="Path_1678" data-name="Path 1678" d="M162.74,252.981l17.357,9.96,17.473-9.921-17.357-9.96Z" transform="translate(7299.68 3.086)" fill="#d0ddfe"/>
    <path id="Path_1679" data-name="Path 1679" d="M149.55,245.392l17.357,9.96,17.473-9.9-17.338-9.96Z" transform="translate(7287.262 -4.041)" fill="#d0ddfe"/>
    <path id="Path_1680" data-name="Path 1680" d="M282,335.843l17.338,9.96,17.473-9.921L299.473,326Z" transform="translate(7411.963 81.174)" fill="#d0ddfe"/>
    <path id="Path_1681" data-name="Path 1681" d="M268.76,328.292l17.338,9.96,17.474-9.9-17.357-9.96Z" transform="translate(7399.498 74.009)" fill="#d0ddfe"/>
    <path id="Path_1682" data-name="Path 1682" d="M255.57,320.731l17.357,9.96L290.4,320.77l-17.338-9.96Z" transform="translate(7387.079 66.873)" fill="#d0ddfe"/>
    <path id="Path_1683" data-name="Path 1683" d="M242.38,313.161l17.357,9.96,17.474-9.921-17.338-9.96Z" transform="translate(7374.661 59.746)" fill="#d0ddfe"/>
    <path id="Path_1684" data-name="Path 1684" d="M229.19,305.572l17.357,9.96,17.474-9.9-17.338-9.96Z" transform="translate(7362.243 52.619)" fill="#d0ddfe"/>
    <path id="Path_1685" data-name="Path 1685" d="M216,298.011l17.357,9.96,17.473-9.921-17.357-9.96Z" transform="translate(7349.824 45.482)" fill="#d0ddfe"/>
    <path id="Path_1686" data-name="Path 1686" d="M202.82,290.441l17.338,9.96,17.474-9.921-17.357-9.96Z" transform="translate(7337.416 38.355)" fill="#d0ddfe"/>
    <path id="Path_1687" data-name="Path 1687" d="M189.63,282.8l17.338,9.96,17.473-9.9L207.162,273Z" transform="translate(7324.997 31.275)" fill="#d0ddfe"/>
    <path id="Path_1688" data-name="Path 1688" d="M176.44,275.291l17.338,9.96,17.473-9.921-17.357-9.96Z" transform="translate(7312.579 24.091)" fill="#d0ddfe"/>
    <path id="Path_1689" data-name="Path 1689" d="M163.25,267.721l17.357,9.96,17.473-9.921-17.357-9.96Z" transform="translate(7300.16 16.964)" fill="#d0ddfe"/>
    <path id="Path_1690" data-name="Path 1690" d="M150.06,260.132l17.357,9.96,17.474-9.9-17.338-9.96Z" transform="translate(7287.742 9.837)" fill="#d0ddfe"/>
    <path id="Path_1691" data-name="Path 1691" d="M136.88,252.571,166,269.268l17.473-9.9L154.354,242.65Z" transform="translate(7275.333 2.7)" fill="#d0ddfe"/>
    <path id="Path_1692" data-name="Path 1692" d="M263.37,339.642l28.792,16.542,17.474-9.9L280.824,329.74Z" transform="translate(7394.423 84.695)" fill="#d0ddfe"/>
    <path id="Path_1693" data-name="Path 1693" d="M256.08,335.471l17.357,9.96,17.474-9.9-17.357-9.979Z" transform="translate(7387.56 80.751)" fill="#d0ddfe"/>
    <path id="Path_1694" data-name="Path 1694" d="M242.89,327.882l17.357,9.96,17.474-9.921L260.441,318Z" transform="translate(7375.141 73.642)" fill="#d0ddfe"/>
    <path id="Path_1695" data-name="Path 1695" d="M229.7,320.312l17.357,9.979,17.473-9.921-17.338-9.96Z" transform="translate(7362.723 66.496)" fill="#d0ddfe"/>
    <path id="Path_1696" data-name="Path 1696" d="M216.51,312.751l17.357,9.96,17.473-9.9L234,302.83Z" transform="translate(7350.304 59.36)" fill="#d0ddfe"/>
    <path id="Path_1697" data-name="Path 1697" d="M203.33,305.181l17.338,9.96,17.473-9.921-17.357-9.96Z" transform="translate(7337.895 52.233)" fill="#d0ddfe"/>
    <path id="Path_1698" data-name="Path 1698" d="M190.14,297.592l17.338,9.979,17.474-9.921-17.357-9.96Z" transform="translate(7325.477 45.105)" fill="#d0ddfe"/>
    <path id="Path_1699" data-name="Path 1699" d="M177,290.031l17.338,9.96,17.473-9.921-17.338-9.96Z" transform="translate(7313.105 37.969)" fill="#d0ddfe"/>
    <path id="Path_1700" data-name="Path 1700" d="M163.76,282.461l17.338,9.96,17.473-9.921-17.357-9.96Z" transform="translate(7300.64 30.842)" fill="#d0ddfe"/>
    <path id="Path_1701" data-name="Path 1701" d="M150.57,274.843l17.357,9.96,17.473-9.9L168.121,265Z" transform="translate(7288.222 23.743)" fill="#d0ddfe"/>
    <path id="Path_1702" data-name="Path 1702" d="M137.38,267.311l17.357,9.96,17.473-9.921-17.338-9.96Z" transform="translate(7275.804 16.578)" fill="#d0ddfe"/>
    <path id="Path_1703" data-name="Path 1703" d="M124.2,259.741l17.338,9.96,17.473-9.921-17.338-9.96Z" transform="translate(7263.395 9.451)" fill="#d0ddfe"/>
    <path id="Path_1704" data-name="Path 1704" d="M256.59,350.211l17.338,9.96,17.474-9.9-17.357-9.979Z" transform="translate(7388.04 94.628)" fill="#d0ddfe"/>
    <path id="Path_1705" data-name="Path 1705" d="M243.4,342.641l17.357,9.96,17.474-9.921-17.338-9.96Z" transform="translate(7375.622 87.501)" fill="#d0ddfe"/>
    <path id="Path_1706" data-name="Path 1706" d="M230.21,335.071l17.357,9.96,17.473-9.921L247.7,325.15Z" transform="translate(7363.203 80.374)" fill="#d0ddfe"/>
    <path id="Path_1707" data-name="Path 1707" d="M217,327.482l17.357,9.96,17.473-9.9-17.338-9.96Z" transform="translate(7350.766 73.247)" fill="#d0ddfe"/>
    <path id="Path_1708" data-name="Path 1708" d="M203.84,319.921l17.338,9.96,17.473-9.921L221.372,310Z" transform="translate(7338.376 66.11)" fill="#d0ddfe"/>
    <path id="Path_1709" data-name="Path 1709" d="M190.65,312.332l17.338,9.979,17.474-9.921L208.1,302.43Z" transform="translate(7325.957 58.983)" fill="#d0ddfe"/>
    <path id="Path_1710" data-name="Path 1710" d="M177.46,304.811l17.338,9.96,17.473-9.9-17.357-9.979Z" transform="translate(7313.539 51.884)" fill="#d0ddfe"/>
    <path id="Path_1711" data-name="Path 1711" d="M164.27,297.2l17.338,9.96,17.474-9.921-17.357-9.96Z" transform="translate(7301.12 44.719)" fill="#d0ddfe"/>
    <path id="Path_1712" data-name="Path 1712" d="M151.08,289.565,168.4,299.641l17.474-9.921-17.357-9.96Z" transform="translate(7288.702 37.639)" fill="#d0ddfe"/>
    <path id="Path_1713" data-name="Path 1713" d="M137.89,282.051l17.357,9.96,17.473-9.9-17.338-9.979Z" transform="translate(7276.284 30.456)" fill="#d0ddfe"/>
    <path id="Path_1714" data-name="Path 1714" d="M119,271.211l28.4,16.309,17.473-9.921-28.4-16.309Z" transform="translate(7258.499 20.25)" fill="#d0ddfe"/>
    <path id="Path_1715" data-name="Path 1715" d="M111.52,266.9l17.338,9.96,17.473-9.921L129.052,257Z" transform="translate(7251.456 16.211)" fill="#d0ddfe"/>
    <path id="Path_1716" data-name="Path 1716" d="M242.16,358.371l17.338,9.96,17.473-9.921c-6.951-3.98-10.426-5.96-17.357-9.96Z" transform="translate(7374.454 102.311)" fill="#d0ddfe"/>
    <path id="Path_1717" data-name="Path 1717" d="M229,350.82l17.338,9.96,17.474-9.921-17.338-9.979Z" transform="translate(7362.064 95.184)" fill="#d0ddfe"/>
    <path id="Path_1718" data-name="Path 1718" d="M215.78,343.212l17.357,9.96,17.473-9.9-17.338-9.96Z" transform="translate(7349.617 88.057)" fill="#d0ddfe"/>
    <path id="Path_1719" data-name="Path 1719" d="M136.65,297.811,282.029,381.3l17.473-9.921L154.123,287.89Z" transform="translate(7275.116 45.294)" fill="#d0ddfe"/>
    <path id="Path_1720" data-name="Path 1720" d="M123.46,290.211l17.357,9.96,17.474-9.921-17.357-9.96Z" transform="translate(7262.698 38.138)" fill="#d0ddfe"/>
    <path id="Path_1721" data-name="Path 1721" d="M110.27,282.641l17.357,9.96L145.1,282.68l-17.338-9.96Z" transform="translate(7250.279 31.011)" fill="#d0ddfe"/>
    <path id="Path_1722" data-name="Path 1722" d="M97.09,275.052l17.338,9.96,17.473-9.9-17.338-9.96Z" transform="translate(7237.87 23.884)" fill="#d0ddfe"/>
    <path id="Path_1723" data-name="Path 1723" d="M288.92,373.12,169.382,304.1l-68.3,42.072,119.5,69.059Z" transform="translate(7241.627 60.555)" fill="#d0ddfe"/>
    <path id="Path_1724" data-name="Path 1724" d="M252.506,408.81v-3.359l93.93-53.43v-4.6L246.72,405.063l1.476,2.679,2.66,2.718Z" transform="translate(7378.747 101.341)" fill="#474d90"/>
    <path id="Path_1725" data-name="Path 1725" d="M158.946,222.77A24.851,24.851,0,0,0,157,230.225a4.873,4.873,0,0,0,1.456,3.786,65.359,65.359,0,0,0,6.679,1.456c1.553,0,6.6,4.116,10.29,4.368s8.407,1.378,8.931-1.534-18.192-14.5-18.192-14.5Z" transform="translate(7294.271 -16.017)" fill="#2d3057"/>
    <path id="Path_1726" data-name="Path 1726" d="M114.03,198.085l33.86,20.133-1.728-44.635L118.748,157.76Z" transform="translate(7253.819 -77.224)" fill="#e0e4ed"/>
    <path id="Path_1727" data-name="Path 1727" d="M128.963,154.03l-12.5,7.242L143.874,177.1l12.5-7.2Z" transform="translate(7256.107 -80.735)" fill="#53a318"/>
    <path id="Path_1728" data-name="Path 1728" d="M144.811,206.8l-12.5,7.242L130.58,169.4l12.5-7.2Z" transform="translate(7269.401 -73.043)" fill="#f1f1f2"/>
    <ellipse id="Ellipse_26" data-name="Ellipse 26" cx="72.806" cy="37.859" rx="72.806" ry="37.859" transform="translate(7354.822 181.436)" fill="#686868" opacity="0.3"/>
    <path id="Path_1729" data-name="Path 1729" d="M180.758,163.24s-10.135,27.88-13.183,35.471-27.395,47.12-27.395,47.12l-8.62-1.941s17.241-39.024,20.269-49.159,5.067-30.4,5.067-30.4Z" transform="translate(7270.324 -72.064)" fill="#2d3057"/>
    <path id="Path_1730" data-name="Path 1730" d="M137,164.2s-1.844,12.329-.835,16.386,25.239,34.947,27.861,42.053,9.125,56.3,13.183,58.245,9.708-1.514,9.708-1.514l-4.834-65.6a15.765,15.765,0,0,0-1.786-6.252l-19.726-37.587Z" transform="translate(7274.376 -71.16)" fill="#474d90"/>
    <path id="Path_1731" data-name="Path 1731" d="M186.889,132.066c-.5,0-45.742,5.689-51.566,9.572s-10.193,15.532-10.193,15.532,1.456,3.4,6.8,2.912,15.047-8.737,19.9-9.222l38.345-3.883S192.83,131.231,186.889,132.066Z" transform="translate(7264.27 -101.445)" fill="#ba4270"/>
    <path id="Path_1732" data-name="Path 1732" d="M279.322,177.467a16.037,16.037,0,0,1,7.281,12.62v13.8c0,4.621-3.3,6.485-7.319,4.174l-30.462-17.59a16.017,16.017,0,0,1-7.281-12.6v-13.8c0-4.64,3.3-6.5,7.319-4.174l1.417.815,10.154,5.825c-5.436-1.32-9.436,2.155-9.455,8.989a2.111,2.111,0,0,0,0,.349v.777a3.074,3.074,0,0,1,0,.369.717.717,0,0,1,0,.214v.388a29.123,29.123,0,0,0,12.911,20.444c7.222,4.174,13.086.835,13.105-7.455a29.122,29.122,0,0,0-9.319-19.862l10.154,5.824Zm-33.666,3.223a1.2,1.2,0,0,0,1.942-1.068,4.116,4.116,0,0,0-1.942-3.223c-1.029-.582-1.941-.116-1.941,1.068a4.155,4.155,0,0,0,1.941,3.223m0-9.164a.808.808,0,0,0-1.3.757,2.854,2.854,0,0,0,1.3,2.233c.718.427,1.3.1,1.3-.738a2.893,2.893,0,0,0-1.3-2.252" transform="translate(7373.87 -76.157)" fill="#2e3158"/>
    <path id="Path_1733" data-name="Path 1733" d="M259.49,164.488l.33.194.194.116.136.1.233.136h0l.252.194.349.233a27.841,27.841,0,0,1,7.339,8.213l-1.495,1.417a21.726,21.726,0,0,0-7.436-7.766c-5.824-3.378-10.62-.66-10.639,6.077a23.1,23.1,0,0,0,5.494,13.843l-1.476,1.437a29.433,29.433,0,0,1-6.349-14.561c0-.136,0-.214,0-.272v-.175a.719.719,0,0,0,0-.214,1.029,1.029,0,0,0,0-.252v-.893a2.111,2.111,0,0,1,0-.349c0-6.834,4.019-10.309,9.455-8.989a14.6,14.6,0,0,1,3.611,1.514Z" transform="translate(7378.461 -72.575)" fill="#7e84d1"/>
    <path id="Path_1734" data-name="Path 1734" d="M246.53,169.238v0Z" transform="translate(7378.568 -66.782)" fill="#5e66c6"/>
    <path id="Path_1735" data-name="Path 1735" d="M254.92,164.354l.33.194-.33-.194a14.6,14.6,0,0,0-3.65-1.514A14.6,14.6,0,0,1,254.92,164.354Z" transform="translate(7383.031 -72.441)" fill="#575a79"/>
    <path id="Path_1736" data-name="Path 1736" d="M258.309,165.785a21.725,21.725,0,0,1,7.436,7.766c-3.495,3.3-8.465,8.1-12.581,12.1A23.1,23.1,0,0,1,247.67,171.8C247.689,165.125,252.466,162.406,258.309,165.785Z" transform="translate(7379.642 -71.037)" fill="#b9ceff"/>
    <path id="Path_1737" data-name="Path 1737" d="M260.861,173.113a.757.757,0,0,1,.388.621c.349,5.417-3.068,8.018-7.611,5.824a.835.835,0,0,1-.388-.6c0-.233.136-.349.349-.252,4.116,1.942,7.242-.369,6.931-5.3C260.531,173.132,260.666,173.035,260.861,173.113Z" transform="translate(7384.895 -62.794)" fill="#fdfdfd"/>
    <path id="Path_1738" data-name="Path 1738" d="M263.1,169.11a21.356,21.356,0,0,1,3.126,10.484c0,6.718-4.776,9.416-10.62,6.038a19.065,19.065,0,0,1-5.087-4.427C254.6,177.206,259.567,172.411,263.1,169.11Zm-6.873,14.173c4.563,2.213,7.98-.388,7.63-5.825a.738.738,0,0,0-.369-.6c-.214-.1-.369,0-.349.252.311,4.931-2.815,7.3-6.931,5.3-.214-.1-.369,0-.349.252a.874.874,0,0,0,.369.6" transform="translate(7382.325 -66.538)" fill="#a8c2ff"/>
    <path id="Path_1739" data-name="Path 1739" d="M263.012,165.81a29.123,29.123,0,0,1,9.358,19.842c0,8.29-5.825,11.649-13.105,7.455a29.122,29.122,0,0,1-12.775-19.415,29.977,29.977,0,0,0,6.232,13.59l1.476-1.437a19.066,19.066,0,0,0,5.087,4.427c5.825,3.378,10.6.679,10.62-6.038a21.356,21.356,0,0,0-3.126-10.484l1.495-1.417a27.723,27.723,0,0,0-7.319-8.193A23.451,23.451,0,0,1,263.012,165.81Z" transform="translate(7378.53 -71.217)" fill="#5e66c6"/>
    <path id="Path_1740" data-name="Path 1740" d="M270.027,169.933a7.766,7.766,0,0,1,3.456,5.63l.175,2.272-10.232-5.96a23.448,23.448,0,0,0-2.058-1.67l-.311-.233a1.435,1.435,0,0,1-.311-.214h0l-.233-.136-.136-.1-.194-.116-.33-.194a14.6,14.6,0,0,0-3.65-1.514l-10.154-5.824.175-2.077c.194-1.941,1.689-2.66,3.495-1.631Z" transform="translate(7378.116 -77.282)" fill="#2e3158"/>
    <path id="Path_1741" data-name="Path 1741" d="M246.493,169.027a3.483,3.483,0,0,1,0-.447,3.475,3.475,0,0,0,0,.447Z" transform="translate(7378.527 -67.037)" fill="#5e66c6"/>
    <path id="Path_1742" data-name="Path 1742" d="M244.612,168.031a4.116,4.116,0,0,1,1.941,3.223c0,1.165-.835,1.67-1.941,1.068a4.155,4.155,0,0,1-1.942-3.223A1.19,1.19,0,0,1,244.612,168.031Z" transform="translate(7374.934 -67.789)" fill="#fdfdfd"/>
    <path id="Path_1743" data-name="Path 1743" d="M244.3,165.484a2.893,2.893,0,0,1,1.3,2.252c0,.835-.582,1.165-1.3.738a2.854,2.854,0,0,1-1.3-2.233C243,165.407,243.582,165.077,244.3,165.484Z" transform="translate(7375.245 -70.115)" fill="#fdfdfd"/>
    <g id="Group_952" data-name="Group 952" transform="translate(7592.481 138.587)">
      <path id="Path_1744" data-name="Path 1744" d="M246.463,223.57l.155.233-4.97,6.951a26.229,26.229,0,0,1-4.388-8.174Z" transform="translate(-222.641 -154.783)" fill="#d0ddfe"/>
      <path id="Path_1745" data-name="Path 1745" d="M244.768,223.21h0a2.586,2.586,0,0,0,.311.33l-4.97,6.989-.7.99-.349-.427.7-.99Z" transform="translate(-220.946 -154.19)" fill="#2e3158"/>
      <path id="Path_1746" data-name="Path 1746" d="M246.64,226.663a1.554,1.554,0,0,0,0,.291l-9.145-.971a19.009,19.009,0,0,1-.8-5.184,12.507,12.507,0,0,1,.233-2.349Z" transform="translate(-223.168 -158.671)" fill="#d0ddfe"/>
      <path id="Path_1747" data-name="Path 1747" d="M246.5,228.1a.369.369,0,0,0,0,.136l-9.591-8.154a6.8,6.8,0,0,1,2.116-3.786Z" transform="translate(-222.97 -160.695)" fill="#d0ddfe"/>
      <path id="Path_1748" data-name="Path 1748" d="M237.9,215.54l.815,1.281,7.358,11.649-.136.155v.116l-7.552-11.727-.8-1.281Z" transform="translate(-222.33 -161.411)" fill="#2e3158"/>
      <path id="Path_1749" data-name="Path 1749" d="M242.47,223.54h.233l7.4,11.8a7.028,7.028,0,0,1-7.028-.136Z" transform="translate(-217.735 -153.879)" fill="#d0ddfe"/>
      <path id="Path_1750" data-name="Path 1750" d="M243.3,235.3v1.689l-.388-.194-.1-1.689-.582-11.649h.116a.679.679,0,0,0,.272.116Z" transform="translate(-217.961 -153.954)" fill="#2e3158"/>
      <path id="Path_1751" data-name="Path 1751" d="M250.259,235.226l1.048,1.67-.272.175-1.048-1.65-7.4-11.8a.582.582,0,0,0,.291-.136Z" transform="translate(-217.622 -153.936)" fill="#2e3158"/>
      <path id="Path_1752" data-name="Path 1752" d="M242.326,217.007l.544,10.445-.369.466-.583-11.105-.058-1.223.408.194Z" transform="translate(-218.31 -161.364)" fill="#2e3158"/>
      <path id="Path_1753" data-name="Path 1753" d="M247.381,220.65l-4.757,6.116L242.1,216.32l.485.272a19.842,19.842,0,0,1,4.8,4.058Z" transform="translate(-218.084 -160.677)" fill="#d0ddfe"/>
      <path id="Path_1754" data-name="Path 1754" d="M243.14,226.1l4.97-6.388a25.822,25.822,0,0,1,3.514,7.3Z" transform="translate(-217.105 -157.485)" fill="#d0ddfe"/>
      <path id="Path_1755" data-name="Path 1755" d="M248.573,216.133a23.065,23.065,0,0,1,5.824,5.009l-1.048,1.34a19.842,19.842,0,0,0-4.8-4.058l-.485-.272v-1.223l-.408-.194v1.223a6.931,6.931,0,0,0-7.222,0l-.815-1.281-.252.194.8,1.281a6.8,6.8,0,0,0-2.213,3.786l-1.107-.951v.369l1.126.971a12.5,12.5,0,0,0-.233,2.349,19.009,19.009,0,0,0,.8,5.184l-1.165-.136.136.5,1.184.116a26.231,26.231,0,0,0,4.388,8.174l-.7.99.349.427.7-.99a19.414,19.414,0,0,0,5.145,4.465l.5.291.1,1.689.388.194V243.9a7.028,7.028,0,0,0,7.028.136l1.048,1.65.272-.175-1.048-1.67a6.523,6.523,0,0,0,2.291-3.534l1.262,1.087V241l-1.262-1.087a11.652,11.652,0,0,0,.291-2.7,18.271,18.271,0,0,0-.66-4.7l1.126.116-.155-.5-1.107-.116a25.822,25.822,0,0,0-3.514-7.3l1.048-1.34a27.181,27.181,0,0,1,5.262,14.988c0,8.154-5.825,11.435-12.892,7.358a28.21,28.21,0,0,1-12.814-22.211C235.7,215.337,241.487,212.037,248.573,216.133Z" transform="translate(-224.072 -162.509)" fill="#2e3158"/>
      <path id="Path_1756" data-name="Path 1756" d="M253.782,214.48a1.185,1.185,0,0,0,0,1.01l.757,2.466-4.174,5.3-1.048,1.34-4.97,6.426-.349.447-.194.252-.175.233h0a.582.582,0,0,1-.311.155h-.233a.679.679,0,0,1-.272-.116H242.6a2.583,2.583,0,0,1-.311-.33l-.194-.291a2.309,2.309,0,0,1-.214-.5,1.552,1.552,0,0,1,0-.291,1.147,1.147,0,0,1,0-.447.37.37,0,0,1,0-.136v-.116l.136-.155.447-.582.349-.466,4.757-6.116,1.048-1.34Z" transform="translate(-218.311 -162.409)" fill="#fff"/>
      <path id="Path_1757" data-name="Path 1757" d="M230.021,187.66l-.291,103.016,89.639,51.76.291-103.016Zm52.653,59.022c0-.582.408-.8.913-.5l7.941,4.582a1.941,1.941,0,0,1,.912,1.553v.544c0,.582-.408,1.728-.893,1.437l-7.96-5.494a1.941,1.941,0,0,1-.893-1.573v-.544M295.159,294.5a28.327,28.327,0,0,1-12.814-22.366l-8.5-4.912a2.33,2.33,0,0,1-.874-1.243l-7.028-22.735-4.155,5.261a27.181,27.181,0,0,1,5.261,14.988c0,8.154-5.825,11.435-12.892,7.358a28.21,28.21,0,0,1-12.814-22.211c0-8.135,5.824-11.435,12.891-7.339a23.064,23.064,0,0,1,5.824,5.009l5.164-6.64,3.359-3.456-4.8-2.757a2.271,2.271,0,0,1-.99-1.747c0-.641.447-.893,1.01-.563l10.115,5.825a2.271,2.271,0,0,1,.99,1.747c0,.641-.447.893-1.01.563l-3.087-1.786a.757.757,0,0,1-.194.563L268,240.741l18.91,10.911a2.445,2.445,0,0,1,.621.582,2.057,2.057,0,0,1,.33.738l2.776,10.271a12.929,12.929,0,0,1,4.6,1.67A28.307,28.307,0,0,1,308.05,287.1c0,8.154-5.825,11.455-12.892,7.358" transform="translate(-229.73 -187.66)" fill="#f7f7f7"/>
      <path id="Path_1758" data-name="Path 1758" d="M246.849,223.357l-9.144-.971h0l-1.068-.117h-.1l.136.5,1.184.116,9.2.99A2.309,2.309,0,0,1,246.849,223.357Z" transform="translate(-223.318 -155.075)" fill="#2e3158"/>
      <path id="Path_1759" data-name="Path 1759" d="M244.63,223.41h.1l.582,11.649-.5-.291a19.416,19.416,0,0,1-5.145-4.465Z" transform="translate(-220.381 -154.001)" fill="#d0ddfe"/>
      <path id="Path_1760" data-name="Path 1760" d="M237.493,218.711l9.591,8.154a1.146,1.146,0,0,0,0,.447l-9.707-8.213-1.126-.971v-.369Z" transform="translate(-223.591 -159.321)" fill="#2e3158"/>
      <path id="Path_1761" data-name="Path 1761" d="M242.74,223.48h0l9.707,8.232a6.523,6.523,0,0,1-2.291,3.534Z" transform="translate(-217.481 -153.935)" fill="#d0ddfe"/>
      <path id="Path_1762" data-name="Path 1762" d="M252.478,231.427l1.262,1.087v.388l-1.262-1.087-9.708-8.232h0l.175-.233Z" transform="translate(-217.453 -154.058)" fill="#2e3158"/>
      <path id="Path_1763" data-name="Path 1763" d="M245.975,227.8l-.447.582-7.358-11.649a6.931,6.931,0,0,1,7.222,0Z" transform="translate(-221.784 -161.244)" fill="#d0ddfe"/>
      <path id="Path_1764" data-name="Path 1764" d="M242.86,223.452l.194-.252,8.97.971a18.271,18.271,0,0,1,.66,4.7,11.646,11.646,0,0,1-.291,2.7Z" transform="translate(-217.368 -154.199)" fill="#d0ddfe"/>
      <path id="Path_1765" data-name="Path 1765" d="M252.9,224l.155.5-1.126-.117-8.97-.971.349-.447,8.484.913Z" transform="translate(-217.274 -154.416)" fill="#2e3158"/>
      <path id="Path_1766" data-name="Path 1766" d="M253.685,213.9a.758.758,0,0,1-.194.563l-2.64,2.7-.815.815.388,1.243,6.5,21.046.7,2.272c.214.7,0,1.243-.524,1.2a.932.932,0,0,1-.388-.136,2.33,2.33,0,0,1-.893-1.2l-7.048-22.793-.718-2.446a1.184,1.184,0,0,1,0-1.01h0l3.359-3.456Z" transform="translate(-212.584 -164.085)" fill="#fff"/>
    </g>
    <path id="Path_1767" data-name="Path 1767" d="M257.895,215.945a2.272,2.272,0,0,1,.99,1.747c0,.641-.447.893-1.01.563l-3.087-1.786-2.233-1.281-4.8-2.757a2.271,2.271,0,0,1-.99-1.747c0-.641.447-.893,1.01-.563Z" transform="translate(7378.794 -28.063)" fill="#2e3158"/>
    <path id="Path_1768" data-name="Path 1768" d="M230.141,130.41l89.639,51.76-.291,103.016-89.639-51.76Zm67.351,100.3V216.9a16.037,16.037,0,0,0-7.281-12.62l-1.417-.815-.175-2.272a7.766,7.766,0,0,0-3.456-5.63l-20.327-11.746c-1.806-1.029-3.3-.311-3.495,1.631l-.175,2.077-1.417-.815c-4.019-2.33-7.3-.466-7.319,4.174v13.8a16.017,16.017,0,0,0,7.281,12.6l30.617,17.59c4.019,2.31,7.3.447,7.319-4.174" transform="translate(7362.864 -102.974)" fill="#f7f7f7"/>
    <path id="Path_1769" data-name="Path 1769" d="M319.808,261.793a1.281,1.281,0,0,1,.485.563l.175.349c.194.447.136.835-.136.893l-7.766,2.039a.5.5,0,0,1-.349,0,1.282,1.282,0,0,1-.485-.563l-.155-.349c-.194-.427-.136-.815.117-.874l7.766-2.058A.583.583,0,0,1,319.808,261.793Z" transform="translate(7439.7 20.698)" fill="#fff"/>
    <g id="Group_953" data-name="Group 953" transform="translate(7691.4 195.745)">
      <path id="Path_1770" data-name="Path 1770" d="M286,245.827c0-.408.291-.582.641-.388l4.543,2.621a13.6,13.6,0,0,0-.116,1.806l-4.427-2.563a1.359,1.359,0,0,1-.641-1.126Z" transform="translate(-275.671 -190.494)" fill="#f7f7f7"/>
      <path id="Path_1771" data-name="Path 1771" d="M300.159,245.792a23.3,23.3,0,0,1,10.581,18.328c0,6.737-4.8,9.455-10.659,6.077a23.3,23.3,0,0,1-10.562-18.328C289.6,245.152,294.335,242.414,300.159,245.792Zm-5.824,10.135a.5.5,0,0,0,.349,0l7.766-1.941c.252,0,.311-.466.116-.874l-.155-.369a1.4,1.4,0,0,0-.485-.563.6.6,0,0,0-.349,0l-7.766,2.058c-.272,0-.33.447-.136.874l.175.369a1.2,1.2,0,0,0,.466.544m14.153,5.261c.252,0,.311-.466.117-.893l-.175-.349a1.243,1.243,0,0,0-.466-.563.6.6,0,0,0-.349,0l-7.766,2.058c-.272,0-.33.447-.136.854l.175.369a1.183,1.183,0,0,0,.485.563.446.446,0,0,0,.33,0l7.766-1.942" transform="translate(-272.357 -191.45)" fill="#f7f7f7"/>
      <path id="Path_1772" data-name="Path 1772" d="M299.917,248.417a1.4,1.4,0,0,1,.485.563l.155.369c.194.408.136.8-.117.874l-7.766,1.941a.5.5,0,0,1-.349,0,1.2,1.2,0,0,1-.466-.544l-.175-.369c-.194-.427-.136-.815.136-.874l7.766-2.058A.6.6,0,0,1,299.917,248.417Z" transform="translate(-270.426 -187.706)" fill="#f7f7f7"/>
      <path id="Path_1773" data-name="Path 1773" d="M303.047,252.137a1.242,1.242,0,0,1,.466.563l.175.35c.194.427.136.835-.116.893l-7.766,1.942a.447.447,0,0,1-.33,0,1.184,1.184,0,0,1-.485-.563l-.175-.369c-.194-.408-.136-.8.136-.854l7.766-2.058A.6.6,0,0,1,303.047,252.137Z" transform="translate(-267.479 -184.204)" fill="#f7f7f7"/>
      <path id="Path_1774" data-name="Path 1774" d="M313.423,266.224c0,7.863-5.611,11.028-12.445,7.086a27.181,27.181,0,0,1-12.348-21.356,13.711,13.711,0,0,1,.117-1.825c.835-6.485,6.038-8.873,12.309-5.261a27.628,27.628,0,0,1,12.251,19.415,16.19,16.19,0,0,1,.117,1.941ZM301,271.292c5.825,3.378,10.639.66,10.659-6.077a23.3,23.3,0,0,0-10.581-18.328c-5.825-3.378-10.62-.641-10.639,6.077A23.3,23.3,0,0,0,301,271.292" transform="translate(-273.195 -192.544)" fill="#f7f7f7"/>
      <path id="Path_1775" data-name="Path 1775" d="M301.456,255.992a16.2,16.2,0,0,0-.117-1.943l8.038,4.642a13.24,13.24,0,0,0-.116,1.806Z" transform="translate(-261.229 -182.313)" fill="#f7f7f7"/>
      <path id="Path_1776" data-name="Path 1776" d="M316.989,255.5a23.3,23.3,0,0,1,10.581,18.328c0,6.737-4.8,9.474-10.639,6.1a23.414,23.414,0,0,1-10.6-18.347C306.349,254.858,311.125,252.043,316.989,255.5Zm-5.96,10.135a.466.466,0,0,0,.349,0l7.766-2.039c.272,0,.33-.466.136-.874l-.175-.369a1.282,1.282,0,0,0-.485-.563.427.427,0,0,0-.33,0l-7.766,2.039c-.252,0-.311.447-.116.874l.175.369a1.088,1.088,0,0,0,.466.544m14.134,5.261c.272,0,.33-.447.136-.893l-.175-.349a1.281,1.281,0,0,0-.485-.563.583.583,0,0,0-.35,0l-7.766,2.058c-.252,0-.311.447-.116.874l.155.349a1.282,1.282,0,0,0,.485.563.506.506,0,0,0,.349,0l7.766-2.039" transform="translate(-256.53 -182.343)" fill="#f7f7f7"/>
      <path id="Path_1777" data-name="Path 1777" d="M330.194,275.9c0,7.863-5.591,11.047-12.426,7.106a27.181,27.181,0,0,1-12.348-21.356,13.246,13.246,0,0,1,.117-1.806c.815-6.5,6.038-8.892,12.309-5.262A27.569,27.569,0,0,1,330.1,274C330.155,274.639,330.194,275.28,330.194,275.9Zm-12.406,5.087c5.824,3.378,10.62.641,10.639-6.1a23.3,23.3,0,0,0-10.581-18.328c-5.825-3.378-10.639-.641-10.659,6.077a23.414,23.414,0,0,0,10.6,18.347" transform="translate(-257.387 -183.408)" fill="#f7f7f7"/>
      <path id="Path_1778" data-name="Path 1778" d="M316.7,258.074a1.282,1.282,0,0,1,.485.563l.175.369c.194.408.136.815-.136.874l-7.766,2.039a.466.466,0,0,1-.349,0,1.087,1.087,0,0,1-.466-.544l-.175-.369c-.194-.427-.136-.815.116-.874l7.766-2.039a.427.427,0,0,1,.349-.019Z" transform="translate(-254.628 -178.55)" fill="#f7f7f7"/>
      <path id="Path_1779" data-name="Path 1779" d="M322.673,266.38a1.417,1.417,0,0,1,.641,1.126v.369c0,.408-.291.582-.641.369l-4.446-2.563a13.411,13.411,0,0,0-.1-1.941Z" transform="translate(-245.421 -173.188)" fill="#f7f7f7"/>
      <path id="Path_1780" data-name="Path 1780" d="M281.049,217.1l89.561,51.76-.291,103.016-89.639-51.76Zm77.524,94.687v-.369a1.417,1.417,0,0,0-.641-1.126l-4.543-2.621a27.569,27.569,0,0,0-12.251-19.415c-6.271-3.631-11.494-1.243-12.309,5.261l-8.038-4.64a27.627,27.627,0,0,0-12.309-19.551c-6.271-3.611-11.474-1.223-12.309,5.262l-4.543-2.621a.4.4,0,0,0-.641.388v.349a1.359,1.359,0,0,0,.641,1.126l4.427,2.563A27.181,27.181,0,0,0,308.4,297.75c6.834,3.883,12.425.777,12.445-7.067l7.766,4.5a27.181,27.181,0,0,0,12.348,21.356c6.834,3.883,12.406.757,12.426-7.086L357.835,312a.4.4,0,0,0,.641-.369" transform="translate(-280.68 -217.1)" fill="#f7f7f7"/>
    </g>
    <g id="Group_954" data-name="Group 954" transform="translate(7700.758 129.396)">
      <path id="Path_1781" data-name="Path 1781" d="M335.435,207.783,357.9,240.73l-72.4-41.82,22.483-6.97Z" transform="translate(-285.5 -174.439)" fill="#6068c8"/>
      <path id="Path_1782" data-name="Path 1782" d="M324.649,203.031l-.019,9.3-.1-.039-27.356-15.8-.1-.039.019-1.709.019-7.591Z" transform="translate(-274.597 -178.949)" fill="#2e3158"/>
      <path id="Path_1783" data-name="Path 1783" d="M313,186.953a25.705,25.705,0,0,1,11.649,20.114l-27.53-15.881c0-7.378,5.281-10.368,11.649-6.679Z" transform="translate(-274.56 -182.926)" fill="#6068c8"/>
    </g>
    <path id="Path_1784" data-name="Path 1784" d="M281.141,159.85l89.639,51.76-.291,103.016-89.639-51.76Zm8.679,69.292,72.4,41.8-22.366-32.908v-9.3A25.705,25.705,0,0,0,328.2,208.621l-4.232-2.446c-6.407-3.689-11.649-.7-11.649,6.679v9.3l-22.5,6.989" transform="translate(7410.88 -75.256)" fill="#f7f7f7"/>
    <path id="Path_1785" data-name="Path 1785" d="M219.322,131.777v.913L196.16,119.313V118.4Z" transform="translate(7331.145 -114.281)" fill="#6068c8"/>
    <g id="Group_955" data-name="Group 955" transform="translate(7493.503 -29.663)">
      <path id="Path_1786" data-name="Path 1786" d="M186.63,181.211c0-5.689,4.038-7.98,8.97-5.126l.835.485v28.89l-9.707-5.65Z" transform="translate(-171.331 -31.463)" fill="#2e3158"/>
      <path id="Path_1787" data-name="Path 1787" d="M214.4,188.858c0,5.261-3.883,7.378-8.407,4.718a18.5,18.5,0,0,1-8.368-14.406Z" transform="translate(-160.974 -27.403)" fill="#2e3158"/>
      <path id="Path_1788" data-name="Path 1788" d="M216.875,190.271c0,6.329-4.562,8.853-10.076,5.669a22.094,22.094,0,0,1-10.018-17.26l1.65.951a18.5,18.5,0,0,0,8.368,14.406c4.6,2.66,8.368.544,8.407-4.718Z" transform="translate(-161.775 -27.864)" fill="#fff"/>
      <path id="Path_1789" data-name="Path 1789" d="M231.605,198.766v28.889l-.1,34.831L191.63,239.46V175.74l9.9,5.708a22.094,22.094,0,0,0,10.018,17.26c5.514,3.184,10.018.66,10.076-5.669Z" transform="translate(-166.623 -30.632)" fill="#6068c8"/>
      <path id="Path_1790" data-name="Path 1790" d="M213.046,188.038a19.648,19.648,0,0,1,8.911,15.532v18.619l-9.707-5.65V187.65Z" transform="translate(-147.21 -19.419)" fill="#2e3158"/>
      <path id="Path_1791" data-name="Path 1791" d="M219.212,169.578v.913L196.05,157.113l.019-.893Z" transform="translate(-162.462 -49.01)" fill="#6068c8"/>
      <path id="Path_1792" data-name="Path 1792" d="M196.06,158.527V153.77l23.162,13.377-.019,4.737Z" transform="translate(-162.453 -51.317)" fill="#fff"/>
      <path id="Path_1793" data-name="Path 1793" d="M219.222,166.687v.893L196.06,154.2v-.893Z" transform="translate(-162.453 -51.75)" fill="#6068c8"/>
      <path id="Path_1794" data-name="Path 1794" d="M206.842,153.287l4.388,2.543v.893l-6.64-3.883a13.69,13.69,0,0,0,2.252.447Z" transform="translate(-154.422 -52.193)" fill="#6068c8"/>
      <path id="Path_1795" data-name="Path 1795" d="M196.06,155.607l.019-4.737,23.162,13.358-.019,4.757Z" transform="translate(-162.453 -54.047)" fill="#fff"/>
      <path id="Path_1796" data-name="Path 1796" d="M219.232,163.758v.912L196.07,151.313V150.4Z" transform="translate(-162.443 -54.49)" fill="#6068c8"/>
      <path id="Path_1797" data-name="Path 1797" d="M210.128,155.839,205.74,153.3a10.446,10.446,0,0,0,4.388-.466Z" transform="translate(-153.339 -52.202)" fill="#fff"/>
      <path id="Path_1798" data-name="Path 1798" d="M196.149,127.59l3.242,1.941a9.9,9.9,0,0,0-3.262.524Z" transform="translate(-162.387 -75.966)" fill="#fff"/>
      <path id="Path_1799" data-name="Path 1799" d="M196.14,128.023v-.893l5.028,2.912a11.411,11.411,0,0,0-1.786-.136Z" transform="translate(-162.377 -76.399)" fill="#6068c8"/>
      <path id="Path_1800" data-name="Path 1800" d="M209.4,133.015c8.271,4.776,14.95,16.347,14.911,25.841s-6.737,13.338-15.008,8.562a32.889,32.889,0,0,1-14.95-25.861C194.389,132.005,201.106,128.181,209.4,133.015Zm1.709,18.658,9.746,5.611v-.874l-9.708-5.669a4.232,4.232,0,0,0-1.378-2.369v-11.8l-.777-.447v11.8c-.815-.272-1.417.214-1.417,1.184a3.883,3.883,0,0,0,1.806,3.126c.854.5,1.573.214,1.767-.621" transform="translate(-164.063 -72.828)" fill="#fff"/>
      <path id="Path_1801" data-name="Path 1801" d="M222.682,142.461a38.83,38.83,0,0,1,6.892,20.619c0,6.718-2.738,11.144-6.989,12.6a10.446,10.446,0,0,1-4.388.466,13.686,13.686,0,0,1-2.252-.388,19.978,19.978,0,0,1-4.951-2.1,29.647,29.647,0,0,1-4.951-3.631c-.777-.68-1.514-1.417-2.252-2.194a42.283,42.283,0,0,1-4.368-5.514,38.927,38.927,0,0,1-6.892-20.638c0-6.718,2.737-11.144,6.989-12.6a9.9,9.9,0,0,1,3.262-.524,11.413,11.413,0,0,1,1.786.136,18.153,18.153,0,0,1,6.543,2.408,31.646,31.646,0,0,1,6.543,5.145c.6.621,1.2,1.262,1.767,1.941a42.246,42.246,0,0,1,3.262,4.271Zm-11.649,27.181c8.271,4.776,14.988.951,15.008-8.562s-6.64-21.065-14.911-25.841-15.008-.951-15.047,8.543a32.889,32.889,0,0,0,14.95,25.861" transform="translate(-165.776 -75.052)" fill="#6068c8"/>
      <path id="Path_1802" data-name="Path 1802" d="M202.685,134.047l-.039,11.8v1.573l1.378.8,9.824,5.669-.019.874-9.8-5.669-2.155-1.243V145.4l.039-11.8Z" transform="translate(-156.982 -70.307)" fill="#6068c8"/>
      <path id="Path_1803" data-name="Path 1803" d="M209.642,137.8a42.253,42.253,0,0,0-3.262-4.291l3.262,1.941Z" transform="translate(-152.736 -70.392)" fill="#fff"/>
      <path id="Path_1804" data-name="Path 1804" d="M205.47,132.52l5.029,2.912v.893l-3.262-1.942C206.674,133.782,206.072,133.141,205.47,132.52Z" transform="translate(-153.593 -71.324)" fill="#6068c8"/>
      <path id="Path_1805" data-name="Path 1805" d="M196.14,129.427V124.69L219.3,138.047v4.718l-5.028-2.912a31.648,31.648,0,0,0-6.543-5.145,18.152,18.152,0,0,0-6.543-2.407Z" transform="translate(-162.377 -78.696)" fill="#fff"/>
      <path id="Path_1806" data-name="Path 1806" d="M219.293,137.578v.912L196.15,125.133v-.913Z" transform="translate(-162.368 -79.138)" fill="#6068c8"/>
      <path id="Path_1807" data-name="Path 1807" d="M196.15,126.517V121.78l23.162,13.358-.019,4.737Z" transform="translate(-162.368 -81.436)" fill="#fff"/>
      <path id="Path_1808" data-name="Path 1808" d="M179.2,101l-.291,102.9,89.639,51.76.291-103.016Zm56.187,100.628v24.618l-23.162-13.358V197.823h0v-9.455a38.927,38.927,0,0,1-6.892-20.638c0-6.718,2.737-11.144,6.989-12.6V130.511l23.259,13.2v24.638a38.83,38.83,0,0,1,6.892,20.619c0,6.718-2.738,11.144-6.989,12.6" transform="translate(-178.599 -101)" fill="#f7f7f7"/>
      <path id="Path_1809" data-name="Path 1809" d="M196.08,148.94l4.368,2.524a42.287,42.287,0,0,1-4.368-5.514Z" transform="translate(-162.434 -58.68)" fill="#fff"/>
      <path id="Path_1810" data-name="Path 1810" d="M196.08,147.49l4.368,2.524c.738.777,1.476,1.514,2.252,2.194l-6.621-3.883Z" transform="translate(-162.434 -57.23)" fill="#6068c8"/>
      <path id="Path_1811" data-name="Path 1811" d="M196.05,160.466V156.68l23.162,13.377-.019,3.766Z" transform="translate(-162.462 -48.577)" fill="#fff"/>
      <path id="Path_1812" data-name="Path 1812" d="M179.041,158.22l89.639,51.76L268.389,313l-89.639-51.76Zm74.4,91.58V231.182a19.648,19.648,0,0,0-8.911-15.532l-.854-.485-9.882-5.727-1.67-.951-16.775-9.707-1.65-.951-9.9-5.708-.835-.485c-4.931-2.854-8.95-.563-8.97,5.126v18.6l9.708,5.65v34.83l39.878,23.026.1-34.83,9.707,5.65" transform="translate(-178.75 -47.127)" fill="#f7f7f7"/>
      <path id="Path_1813" data-name="Path 1813" d="M207.611,155.358a19.979,19.979,0,0,0,4.951,2.1l6.64,3.883v4.737L196.04,152.718V148l6.621,3.883a29.646,29.646,0,0,0,4.951,3.475Z" transform="translate(-162.471 -56.749)" fill="#fff"/>
      <path id="Path_1814" data-name="Path 1814" d="M202.557,142.163l2.155,1.243c-.194.835-.912,1.126-1.767.621a3.883,3.883,0,0,1-1.806-3.126c0-.971.6-1.456,1.417-1.184Z" transform="translate(-157.67 -64.619)" fill="#6068c8"/>
      <path id="Path_1815" data-name="Path 1815" d="M202.27,139.91a4.232,4.232,0,0,1,1.378,2.369l-1.378-.8Z" transform="translate(-156.606 -64.366)" fill="#6068c8"/>
      <path id="Path_1816" data-name="Path 1816" d="M219.312,134.687v.893L196.15,122.222v-.912Z" transform="translate(-162.368 -81.878)" fill="#6068c8"/>
      <path id="Path_1817" data-name="Path 1817" d="M196.15,123.607l.019-4.737,23.162,13.377-.019,4.737Z" transform="translate(-162.368 -84.175)" fill="#fff"/>
      <path id="Path_1818" data-name="Path 1818" d="M196.179,116.15l23.143,13.358V133.9L196.16,120.518Z" transform="translate(-162.359 -86.736)" fill="#fff"/>
    </g>
    <g id="Group_956" data-name="Group 956" transform="translate(7629.933 191.707)">
      <path id="Path_1819" data-name="Path 1819" d="M252,228h0a.368.368,0,0,1,0,.136,2.252,2.252,0,0,0,.893,1.146h0A2.33,2.33,0,0,1,252,228Z" transform="translate(-246.214 -202.799)" fill="#fff"/>
      <path id="Path_1820" data-name="Path 1820" d="M258,232.267a6.737,6.737,0,0,1,2.213-3.767l5.164,8.213v.272l-5.922-3.417Z" transform="translate(-240.565 -202.329)" fill="#d0ddfe"/>
      <path id="Path_1821" data-name="Path 1821" d="M257.823,233.511l1.048.893-1.941-1.126c.66-4.019,3.029-6.407,6.271-6.7l.7,2.6a5.068,5.068,0,0,0-2.388.932l-.815-1.281-.252.175.8,1.3a6.737,6.737,0,0,0-2.213,3.767l-1.107-.951Z" transform="translate(-241.573 -204.136)" fill="#2e3158"/>
      <path id="Path_1822" data-name="Path 1822" d="M266.459,230.506c-3.242.291-5.611,2.679-6.271,6.7l-6.718-3.883,10.814-10.911Z" transform="translate(-244.83 -208.062)" fill="#d0ddfe"/>
      <path id="Path_1823" data-name="Path 1823" d="M276.3,251.87a1.2,1.2,0,0,1,0,.835l-.1.136a.388.388,0,0,1-.136.117h-.194a1.03,1.03,0,0,1-.485-.136l-.621-.369-8.562-4.931-1.941-1.145-8.484-4.912a.931.931,0,0,0,.388.136c.524,0,.738-.5.524-1.2l-.7-2.272,10.892-11.008-17.474-10.038-.388-1.243.815-.815,18.91,10.911a2.31,2.31,0,0,1,.6.563,1.941,1.941,0,0,1,.349.757l2.776,10.271.68,2.543Zm-8.29-5.553,5.922,3.417v-.272l-.291-1.068-2.213-8.271-.7-2.6-2.33-8.154L257.66,240.221l6.718,3.883,1.942,1.126,1.689.971" transform="translate(-249.02 -215.02)" fill="#fff"/>
      <path id="Path_1824" data-name="Path 1824" d="M257.487,229.95l1.107.951,1.534,1.3-1.689-.971-1.048-.893Z" transform="translate(-241.14 -200.963)" fill="#2e3158"/>
      <path id="Path_1825" data-name="Path 1825" d="M258.34,234.78l9.494,1.029-5.087,7.164A26.21,26.21,0,0,1,258.34,234.78Z" transform="translate(-240.245 -196.416)" fill="#d0ddfe"/>
      <path id="Path_1826" data-name="Path 1826" d="M260.78,242.656l5.067-7.106.6,11.863-.524-.291A19.764,19.764,0,0,1,260.78,242.656Z" transform="translate(-237.948 -195.691)" fill="#d0ddfe"/>
      <path id="Path_1827" data-name="Path 1827" d="M266.431,236.691l1.689,1.456-9.475-1.029a18.911,18.911,0,0,1-.8-5.184s0-.116,0-.175Z" transform="translate(-240.707 -199.259)" fill="#d0ddfe"/>
      <path id="Path_1828" data-name="Path 1828" d="M262.84,234.56h.194l.291.466Z" transform="translate(-236.008 -196.623)" fill="#d0ddfe"/>
      <path id="Path_1829" data-name="Path 1829" d="M258.834,234.576l9.475,1.029.641.544-.466-.039-9.494-1.029-1.184-.136-.155-.485Z" transform="translate(-240.895 -196.717)" fill="#2e3158"/>
      <path id="Path_1830" data-name="Path 1830" d="M259.808,229.021l4.6,7.339.291,1.048-5.164-8.193-.8-1.3.252-.175Z" transform="translate(-239.869 -203.044)" fill="#2e3158"/>
      <path id="Path_1831" data-name="Path 1831" d="M266.036,235.31l.466.039.078.078-.233.349-5.067,7.106-.7.971-.33-.408.7-.971Z" transform="translate(-238.447 -195.917)" fill="#2e3158"/>
      <path id="Path_1832" data-name="Path 1832" d="M264.38,247.776l.078,1.689-.369-.194-.1-1.689-.6-11.863.233-.349.116.1.019.233Z" transform="translate(-235.491 -195.861)" fill="#2e3158"/>
      <path id="Path_1833" data-name="Path 1833" d="M263.182,234.4l.563.913v.252l-.524-.427-.291-.466a.389.389,0,0,0,.136-.116Z" transform="translate(-235.924 -196.774)" fill="#2e3158"/>
      <path id="Path_1834" data-name="Path 1834" d="M264.2,247.616l-.621-12.076,7.65,12.193A7.028,7.028,0,0,1,264.2,247.616Z" transform="translate(-235.312 -195.7)" fill="#d0ddfe"/>
      <path id="Path_1835" data-name="Path 1835" d="M271.511,247.671l1.048,1.67-.272.175-1.048-1.67-7.65-12.193-.019-.233.5.427Z" transform="translate(-235.321 -195.813)" fill="#2e3158"/>
      <path id="Path_1836" data-name="Path 1836" d="M259.29,228.852a5.068,5.068,0,0,1,2.388-.932l2.213,8.271Z" transform="translate(-239.351 -202.875)" fill="#d0ddfe"/>
      <path id="Path_1837" data-name="Path 1837" d="M271.266,247.464,263.83,235.64l9.708,8.271a6.5,6.5,0,0,1-2.272,3.553Z" transform="translate(-235.076 -195.606)" fill="#d0ddfe"/>
      <path id="Path_1838" data-name="Path 1838" d="M249.22,216.08l17.4,10.038-10.892,11.008Z" transform="translate(-248.832 -214.022)" fill="#d0ddfe"/>
      <path id="Path_1839" data-name="Path 1839" d="M275.076,244.7l1.262,1.087-.1.388-1.262-1.087-9.708-8.271-.5-.427h-.116l-.641-.544-1.689-1.456.621.369a1.03,1.03,0,0,0,.485.136l.485.408.524.427h.117l.641.563Z" transform="translate(-236.498 -196.783)" fill="#2e3158"/>
      <path id="Path_1840" data-name="Path 1840" d="M264.585,240.5a1.2,1.2,0,0,0,0-.835L261.44,227.92a10.231,10.231,0,0,1,3.048.971l.641,12.523Z" transform="translate(-237.327 -202.875)" fill="#d0ddfe"/>
      <path id="Path_1841" data-name="Path 1841" d="M264.077,241.545l-.252.33-.117-.078-.019-.252-.641-12.523-.058-1.243.388.194.058,1.243Z" transform="translate(-235.867 -203.007)" fill="#2e3158"/>
      <path id="Path_1842" data-name="Path 1842" d="M273.692,243.777l-9.9-8.407,9.533,1.01a18.27,18.27,0,0,1,.66,4.7A11.646,11.646,0,0,1,273.692,243.777Z" transform="translate(-235.114 -195.861)" fill="#d0ddfe"/>
      <path id="Path_1843" data-name="Path 1843" d="M269.064,233.51l-5.2,7.339-.641-12.329.485.252A20.386,20.386,0,0,1,269.064,233.51Z" transform="translate(-235.651 -202.31)" fill="#d0ddfe"/>
      <path id="Path_1844" data-name="Path 1844" d="M274.6,236.284l.155.5-1.126-.136-9.513-1.01-.66-.563.466.058,9.572,1.029Z" transform="translate(-235.425 -196.134)" fill="#2e3158"/>
      <path id="Path_1845" data-name="Path 1845" d="M269.419,230.7l.33.427-.544.757-5.242,7.378-.466-.058-.078-.078.252-.33,5.2-7.339Z" transform="translate(-235.462 -200.257)" fill="#2e3158"/>
      <path id="Path_1846" data-name="Path 1846" d="M269.722,228.28a28.307,28.307,0,0,1,12.814,22.191c0,8.154-5.825,11.455-12.892,7.358a28.288,28.288,0,0,1-12.814-22.191v-.175l1.942,1.145v.175a18.912,18.912,0,0,0,.8,5.184l-1.165-.117.136.485,1.184.136a26.209,26.209,0,0,0,4.407,8.193l-.7.971.33.408.7-.971a19.765,19.765,0,0,0,5.145,4.465l.524.291.1,1.689.369.194v-1.689a7.028,7.028,0,0,0,7.028.116l1.049,1.67.272-.175-1.048-1.67a6.5,6.5,0,0,0,2.291-3.553l1.262,1.087.1-.388-1.262-1.087a11.649,11.649,0,0,0,.291-2.7,18.27,18.27,0,0,0-.66-4.7l1.126.136-.155-.5-1.107-.116a26.055,26.055,0,0,0-4.33-8.407l.544-.757-.33-.427-.544.757a20.387,20.387,0,0,0-5.359-4.737l-.485-.252v-1.243l-.388-.194v1.243a10.231,10.231,0,0,0-3.048-.971l-.68-2.543a12.928,12.928,0,0,1,4.563,1.67Z" transform="translate(-241.667 -204.108)" fill="#2e3158"/>
      <path id="Path_1847" data-name="Path 1847" d="M265.854,222.445a1.941,1.941,0,0,1,.912,1.553v.544c0,.582-.408,1.728-.893,1.437l-7.96-5.494a1.941,1.941,0,0,1-.893-1.573v-.544c0-.582.408-.8.912-.5Z" transform="translate(-241.488 -212.465)" fill="#2e3158"/>
    </g>
    <path id="Path_1848" data-name="Path 1848" d="M268.942,231.31a26.055,26.055,0,0,1,4.33,8.407l-9.572-1.029Z" transform="translate(7394.733 -7.976)" fill="#d0ddfe"/>
    <path id="Path_1849" data-name="Path 1849" d="M158.251,134.988s12.775-4.116,18-2.815a9.416,9.416,0,0,1,7.417,6.543c.447,1.747-7.494,54.012-7.494,54.012s-22.832,15.959-32.442,11.144c-6.931-3.456-7.475-7.378-7.261-9.28a23.451,23.451,0,0,0,.214-3.495l4.737-44.538Z" transform="translate(7274.911 -101.553)" fill="#d36389"/>
    <path id="Path_1850" data-name="Path 1850" d="M152.095,134.194s-4.66,1.3-5.106,2.388,3.048,6.077,6.737,8.795a23.978,23.978,0,0,0,6.1,3.475,20.288,20.288,0,0,0,4.116-12.173C163.841,129.632,152.095,134.194,152.095,134.194Z" transform="translate(7284.813 -100.778)" fill="#f7f7fb"/>
    <path id="Path_1851" data-name="Path 1851" d="M169.633,126.648a12.717,12.717,0,1,1-16.639-6.853A12.717,12.717,0,0,1,169.633,126.648Z" transform="translate(7283.138 -113.889)" fill="#eebcc5"/>
    <path id="Path_1852" data-name="Path 1852" d="M163.1,128.654,158.77,141.8h0a8.154,8.154,0,0,1-9.125.932h0a1.942,1.942,0,0,1-.99-2.252l3.223-12.7Z" transform="translate(7286.351 -105.45)" fill="#eebcc5"/>
    <path id="Path_1853" data-name="Path 1853" d="M166.3,124.776a3.339,3.339,0,0,0,1.087-1.65h0a12.717,12.717,0,0,0-21.24,13.338,11.97,11.97,0,0,0,.757,1.495,4.193,4.193,0,0,0,1.553-.7c1.048-.777,3.106-4.912,1.631-5.98l2.155,1.553a3.087,3.087,0,0,0-.116-2.932,18.891,18.891,0,0,0,14.173-5.126Z" transform="translate(7283.135 -113.843)" fill="#4d4b7e"/>
    <path id="Path_1854" data-name="Path 1854" d="M154.269,176.83c5.339-2.427,26.21-31.549,26.21-31.549V138s-36.4,1.942-39.626,2.873l-3.883,37.2C142.057,178.305,150.619,178.461,154.269,176.83Z" transform="translate(7275.417 -95.828)" fill="url(#linear-gradient)"/>
    <path id="Path_1855" data-name="Path 1855" d="M151.958,128.152a3.883,3.883,0,1,1-5.067-2.077A3.883,3.883,0,0,1,151.958,128.152Z" transform="translate(7282.504 -107.336)" fill="#eebcc5"/>
    <path id="Path_1856" data-name="Path 1856" d="M140.348,154.176s27.705-7.533,38.345-11.086,43.587-19.26,43.587-19.26l7.378,2.272s-33.219,26.676-40.771,30.229-48.13,14.173-48.13,14.173S133.863,160.214,140.348,154.176Z" transform="translate(7275.98 -109.169)" fill="#d36389"/>
    <line id="Line_22" data-name="Line 22" x1="11.086" y2="28.093" transform="translate(7378.275 60.83)" fill="none" stroke="#2d3057" stroke-linecap="round" stroke-miterlimit="10" stroke-width="0.75"/>
    <path id="Path_1857" data-name="Path 1857" d="M188.5,122a4.7,4.7,0,1,1-6.543,1.145A4.7,4.7,0,0,1,188.5,122Z" transform="translate(7316.966 -111.687)" fill="#eebcc5"/>
    <path id="Path_1858" data-name="Path 1858" d="M130.247,145.75A4.7,4.7,0,1,1,123.7,146.9a4.7,4.7,0,0,1,6.543-1.145Z" transform="translate(7262.124 -89.327)" fill="#eebcc5"/>
    <path id="Path_1859" data-name="Path 1859" d="M139.485,205.088s-3.165,6.116-4.077,8.154-.447,19.046-3.631,19.415-3.4-6.349-3.4-13.358,6.213-14.6,6.213-14.6Z" transform="translate(7267.33 -33.03)" fill="#2e3158"/>
    <line id="Line_23" data-name="Line 23" x1="4.543" y1="37.84" transform="translate(7392.759 60.597)" fill="none" stroke="#2d3057" stroke-linecap="round" stroke-miterlimit="10" stroke-width="0.75"/>
    <path id="Path_1860" data-name="Path 1860" d="M137.042,181.53l-5.572,14.309,12.5-7.242Z" transform="translate(7270.24 -54.844)" fill="#53a318"/>
    <path id="Path_1866" data-name="Path 1866" d="M312.327,212.884a6.5,6.5,0,1,1-1.912-4.606,6.524,6.524,0,0,1,1.912,4.606Z" transform="translate(7428.232 -31.448)" fill="#eebcc5"/>
    <path id="Path_1879" data-name="Path 1879" d="M103.333,312.34,65.085,334.57,59.61,397.96l22.6,14.212,45.9-29.142-3.281-68.147-8.737,1.825-6.193-8.018Z" transform="translate(7202.583 64.877)" fill="#53a318"/>
    <path id="Path_1880" data-name="Path 1880" d="M65.085,322.02l6.543,12.756,11.3-6.523-.718,71.369L59.61,385.41Z" transform="translate(7202.583 77.427)" fill="#f1f1f2"/>
    <path id="Path_1881" data-name="Path 1881" d="M71.968,337.8l41.9-25.919,3.281,68.147-45.9,29.142Z" transform="translate(7213.542 67.88)" fill="#e0e4ed"/>
    <path id="Path_1882" data-name="Path 1882" d="M82.218,328.624c-.252,1.709-1.243,2.951-2.213,2.815s-1.534-1.65-1.262-3.339,1.243-2.951,2.213-2.815S82.49,326.857,82.218,328.624Z" transform="translate(7220.533 80.492)" fill="#0f0f49"/>
    <path id="Path_1883" data-name="Path 1883" d="M89.3,324.214c-.252,1.709-1.243,2.951-2.213,2.815s-1.534-1.65-1.281-3.339,1.262-2.951,2.213-2.815S89.556,322.525,89.3,324.214Z" transform="translate(7227.193 76.339)" fill="#0f0f49"/>
    <path id="Path_1884" data-name="Path 1884" d="M59.61,356.779l11.649-4.349,10.95,18.561Z" transform="translate(7202.583 106.058)" fill="#e0e4ed"/>
    <path id="Path_1885" data-name="Path 1885" d="M87.085,347.476a4.252,4.252,0,0,1-2.369-.738C80.1,343.612,79.339,331.5,79.3,330.973h1.184c0,.116.757,12.057,4.893,14.833a3.087,3.087,0,0,0,2.893.349c5.824-1.942,5.4-17.668,4.776-23.57l1.165-.136c0,.912,2.252,22.211-5.572,24.832A4.987,4.987,0,0,1,87.085,347.476Z" transform="translate(7221.121 77.832)" fill="#0f0f49"/>
    <path id="Path_1886" data-name="Path 1886" d="M125.633,323.87,87.385,346.1,81.91,409.49l22.6,14.212,45.9-29.161-3.281-68.127-8.737,1.825-6.193-8.018Z" transform="translate(7223.579 75.732)" fill="#53a318"/>
    <path id="Path_1887" data-name="Path 1887" d="M87.385,333.55l6.543,12.756,11.3-6.543-.718,71.389L81.91,396.94Z" transform="translate(7223.579 88.283)" fill="#f1f1f2"/>
    <path id="Path_1888" data-name="Path 1888" d="M94.268,349.31l41.9-25.9,3.281,68.127L93.55,420.7Z" transform="translate(7234.537 78.736)" fill="#e0e4ed"/>
    <path id="Path_1889" data-name="Path 1889" d="M104.524,340.114c-.252,1.689-1.243,2.951-2.213,2.815s-1.534-1.65-1.281-3.339,1.262-2.951,2.213-2.815S104.776,338.425,104.524,340.114Z" transform="translate(7241.522 91.309)" fill="#0f0f49"/>
    <path id="Path_1890" data-name="Path 1890" d="M111.6,335.744c-.252,1.689-1.243,2.951-2.213,2.815s-1.534-1.65-1.281-3.339,1.262-2.951,2.213-2.815S111.837,334.055,111.6,335.744Z" transform="translate(7248.188 87.195)" fill="#0f0f49"/>
    <path id="Path_1891" data-name="Path 1891" d="M81.91,368.318l11.649-4.368,10.95,18.58Z" transform="translate(7223.579 116.904)" fill="#e0e4ed"/>
    <path id="Path_1892" data-name="Path 1892" d="M109.385,359.006a4.193,4.193,0,0,1-2.388-.757c-4.6-3.107-5.359-15.221-5.4-15.746h1.184c0,.116.757,12.037,4.873,14.833a3.106,3.106,0,0,0,2.893.349c5.824-1.941,5.417-17.668,4.8-23.57l1.165-.136c0,.912,2.252,22.211-5.572,24.812a4.523,4.523,0,0,1-1.553.214Z" transform="translate(7242.116 88.687)" fill="#0f0f49"/>
    <path id="Path_1893" data-name="Path 1893" d="M191.178,75.59,151.3,113.41l20,11.416,39.84-37.782Z" transform="translate(7288.909 -154.587)" fill="#63bb22"/>
    <path id="Path_1894" data-name="Path 1894" d="M201.478,81.48l-39.9,37.8,20,11.435,39.859-37.8Z" transform="translate(7298.587 -149.041)" fill="#fff"/>
    <path id="Path_1895" data-name="Path 1895" d="M211.758,87.36l-39.9,37.82,20,11.416L231.7,98.815Z" transform="translate(7308.267 -143.505)" fill="#63bb22"/>
    <path id="Path_1896" data-name="Path 1896" d="M222.028,93.25l-39.9,37.8,20,11.435L241.986,104.7Z" transform="translate(7317.936 -137.96)" fill="#fff"/>
    <path id="Path_1897" data-name="Path 1897" d="M232.308,99.14l-39.9,37.8,20,11.416,39.84-37.782Z" transform="translate(7327.614 -132.414)" fill="#63bb22"/>
    <path id="Path_1898" data-name="Path 1898" d="M242.578,105.02l-39.9,37.82,20,11.416,39.859-37.782Z" transform="translate(7337.284 -126.878)" fill="#fff"/>
    <path id="Path_1899" data-name="Path 1899" d="M252.858,110.91l-39.9,37.8,20,11.435,39.84-37.8Z" transform="translate(7346.962 -121.333)" fill="#63bb22"/>
    <path id="Path_1900" data-name="Path 1900" d="M263.128,116.8l-39.9,37.8,20,11.416,39.859-37.782Z" transform="translate(7356.631 -115.787)" fill="#fff"/>
    <path id="Path_1901" data-name="Path 1901" d="M273.417,122.68l-39.917,37.8,20.017,11.435,39.84-37.782Z" transform="translate(7366.301 -110.251)" fill="#63bb22"/>
    <path id="Path_1902" data-name="Path 1902" d="M283.678,128.57l-39.9,37.8,20,11.435,39.84-37.8Z" transform="translate(7375.979 -104.706)" fill="#fff"/>
    <path id="Path_1903" data-name="Path 1903" d="M293.948,134.45l-39.9,37.82,20,11.416L313.906,145.9Z" transform="translate(7385.648 -99.17)" fill="#63bb22"/>
    <path id="Path_1904" data-name="Path 1904" d="M304.228,140.34l-39.9,37.8,20,11.435,39.84-37.782Z" transform="translate(7395.327 -93.625)" fill="#fff"/>
    <path id="Path_1905" data-name="Path 1905" d="M314.5,146.23l-39.9,37.8,20,11.416,39.859-37.782Z" transform="translate(7404.996 -88.079)" fill="#63bb22"/>
    <path id="Path_1906" data-name="Path 1906" d="M324.778,152.11l-39.9,37.8,20,11.435,39.84-37.782Z" transform="translate(7414.675 -82.543)" fill="#fff"/>
    <path id="Path_1907" data-name="Path 1907" d="M335.048,158l-39.9,37.8,20,11.416,39.859-37.782Z" transform="translate(7424.344 -76.998)" fill="#63bb22"/>
    <path id="Path_1908" data-name="Path 1908" d="M345.328,163.88l-39.9,37.82,20,11.416,39.84-37.782Z" transform="translate(7434.022 -71.462)" fill="#fff"/>
    <path id="Path_1909" data-name="Path 1909" d="M151.3,95.07s.5,10.484,7.766,14.775c8.543,5.048,12.212-3.359,12.212-3.359Z" transform="translate(7288.909 -136.246)" fill="#53a318"/>
    <path id="Path_1910" data-name="Path 1910" d="M161.56,100.94s.524,10.484,7.766,14.755c8.562,5.067,12.231-3.339,12.231-3.339Z" transform="translate(7298.569 -130.72)" fill="#686868"/>
    <path id="Path_1911" data-name="Path 1911" d="M171.83,106.81s.524,10.484,7.766,14.755c8.562,5.067,12.231-3.339,12.231-3.339Z" transform="translate(7308.238 -125.193)" fill="#53a318"/>
    <path id="Path_1912" data-name="Path 1912" d="M182.1,112.67s.524,10.5,7.766,14.775c8.562,5.067,12.231-3.339,12.231-3.339Z" transform="translate(7317.907 -119.676)" fill="#686868"/>
    <path id="Path_1913" data-name="Path 1913" d="M192.37,118.54s.524,10.5,7.766,14.775c8.543,5.067,12.231-3.339,12.231-3.339Z" transform="translate(7327.577 -114.149)" fill="#53a318"/>
    <path id="Path_1914" data-name="Path 1914" d="M202.64,124.41s.5,10.5,7.766,14.775c8.543,5.048,12.231-3.339,12.231-3.339Z" transform="translate(7337.246 -108.623)" fill="#686868"/>
    <path id="Path_1915" data-name="Path 1915" d="M212.91,130.28s.5,10.5,7.766,14.775c8.543,5.048,12.212-3.359,12.212-3.359Z" transform="translate(7346.915 -103.096)" fill="#53a318"/>
    <path id="Path_1916" data-name="Path 1916" d="M223.17,136.15s.524,10.5,7.766,14.775c8.543,5.048,12.212-3.359,12.212-3.359Z" transform="translate(7356.574 -97.569)" fill="#686868"/>
    <path id="Path_1917" data-name="Path 1917" d="M233.44,142s.524,10.5,7.766,14.775c8.562,5.048,12.231-3.359,12.231-3.359Z" transform="translate(7366.244 -92.062)" fill="#53a318"/>
    <path id="Path_1918" data-name="Path 1918" d="M243.71,147.89s.524,10.484,7.766,14.775c8.562,5.048,12.231-3.359,12.231-3.359Z" transform="translate(7375.913 -86.516)" fill="#686868"/>
    <path id="Path_1919" data-name="Path 1919" d="M254,153.76s.524,10.484,7.766,14.775c8.543,5.048,12.231-3.359,12.231-3.359Z" transform="translate(7385.601 -80.99)" fill="#53a318"/>
    <path id="Path_1920" data-name="Path 1920" d="M264.25,159.63s.5,10.484,7.766,14.755c8.543,5.067,12.232-3.339,12.232-3.339Z" transform="translate(7395.251 -75.463)" fill="#686868"/>
    <path id="Path_1921" data-name="Path 1921" d="M274.52,165.49s.5,10.5,7.766,14.775c8.543,5.067,12.212-3.339,12.212-3.339Z" transform="translate(7404.92 -69.946)" fill="#53a318"/>
    <path id="Path_1922" data-name="Path 1922" d="M284.79,171.36s.5,10.5,7.766,14.775c8.543,5.067,12.212-3.339,12.212-3.339Z" transform="translate(7414.59 -64.419)" fill="#686868"/>
    <path id="Path_1923" data-name="Path 1923" d="M295.05,177.23s.524,10.5,7.766,14.775c8.562,5.048,12.231-3.339,12.231-3.339Z" transform="translate(7424.25 -58.893)" fill="#53a318"/>
    <path id="Path_1924" data-name="Path 1924" d="M305.32,183.1s.524,10.5,7.766,14.775c8.562,5.048,12.231-3.359,12.231-3.359Z" transform="translate(7433.919 -53.366)" fill="#686868"/>
  </g>
</svg>
