<svg xmlns="http://www.w3.org/2000/svg" width="536.283" height="320.245" viewBox="0 0 536.283 320.245">
  <g id="Group_191" data-name="Group 191" transform="translate(-296 -291.969)" opacity="0.8">
    <g id="shopping" transform="translate(403.118 291.969)" opacity="0.9">
      <path id="Path_47" data-name="Path 47" d="M289.195.5H31.469A31.507,31.507,0,0,0,0,31.976V199.6a31.792,31.792,0,0,0,31.755,31.755h68.382l-6.324,26.49H80.643a24.842,24.842,0,0,0-24.815,24.815v8.553a4.762,4.762,0,0,0,4.761,4.763h46.593l-2.079,19.5a4.765,4.765,0,0,0,4.734,5.27l190.343,0a4.76,4.76,0,0,0,4.736-5.253l-3.631-34.938a4.762,4.762,0,1,0-9.473.983l3.085,29.683H224.971l-10.8-101.188a4.759,4.759,0,0,0-4.734-4.257H156.941l4.247-40.859h20.2v10.473a4.763,4.763,0,1,0,9.527,0V164.915h59.048v10.473a4.762,4.762,0,1,0,9.524,0V164.915h20.2l10.444,100.506a4.762,4.762,0,0,0,4.732,4.269,4.857,4.857,0,0,0,.5-.024,4.762,4.762,0,0,0,4.245-5.231l-3.523-33.9A31.9,31.9,0,0,0,320.662,199.6V31.977A31.5,31.5,0,0,0,289.2.5ZM109.928,231.359h4.152l-2.826,26.49H103.6Zm-44.575,55.1v-3.792a15.307,15.307,0,0,1,15.29-15.29h29.593L108.2,286.456ZM215.39,311.219H115.136L125.375,215.3h79.777ZM190.918,155.388V143.961a29.524,29.524,0,0,1,59.048,0v11.427Zm68.574,0V143.961a39.049,39.049,0,0,0-78.1,0v11.427H156.9a4.763,4.763,0,0,0-4.736,4.272l-3.327,32H66.755a4.762,4.762,0,0,0,0,9.524h81.089l-.477,4.59H121.093a4.763,4.763,0,0,0-4.736,4.257l-1.26,11.8H31.756A22.257,22.257,0,0,1,9.588,201.186H50.88a4.762,4.762,0,0,0,0-9.524H9.525V31.976A21.973,21.973,0,0,1,31.47,10.023H289.2a21.973,21.973,0,0,1,21.945,21.952V191.659h-19.09l-3.325-32a4.763,4.763,0,0,0-4.736-4.272Zm35.6,65.566-2.055-19.77h18.038a22.347,22.347,0,0,1-15.983,19.77Zm0,0" transform="translate(0 -0.5)" fill="#686868"/>
      <path id="Path_48" data-name="Path 48" d="M169.731,77.028H131.239V62.741a15.557,15.557,0,0,0-31.114,0V77.028H61.632A11.367,11.367,0,0,0,50.278,88.38v7.772a11.374,11.374,0,0,0,7.812,10.782l6.522,49.7a19.491,19.491,0,0,0,19.273,16.91h63.594a19.493,19.493,0,0,0,19.273-16.91l6.522-49.7a11.372,11.372,0,0,0,7.812-10.782V88.38a11.37,11.37,0,0,0-11.354-11.352Zm0,9.524a1.829,1.829,0,0,1,1.828,1.828v7.772a1.831,1.831,0,0,1-1.828,1.83H131.239V86.552ZM109.649,62.741a6.032,6.032,0,1,1,12.064,0v51.432a6.032,6.032,0,1,1-12.064,0ZM59.8,88.38a1.831,1.831,0,0,1,1.83-1.828h38.493v11.43H61.632a1.833,1.833,0,0,1-1.83-1.83Zm97.5,67.016a9.94,9.94,0,0,1-9.827,8.624H83.885a9.943,9.943,0,0,1-9.83-8.624l-6.283-47.89h32.352v6.667a15.557,15.557,0,1,0,31.114,0v-6.667h32.355Zm0,0" transform="translate(-18.789 -17.946)" fill="#53a318"/>
      <path id="Path_49" data-name="Path 49" d="M233.1,384.2V363.722a4.762,4.762,0,0,0-9.524,0V384.2a25.239,25.239,0,1,0,50.478,0V363.722a4.762,4.762,0,0,0-9.524,0V384.2a15.715,15.715,0,1,1-31.43,0Zm0,0" transform="translate(-83.55 -134.458)" fill="#53a318"/>
      <path id="Path_50" data-name="Path 50" d="M312.913,77.742h-20.32a4.762,4.762,0,0,0,0,9.524h20.32a4.762,4.762,0,0,0,0-9.524Zm0,0" transform="translate(-107.564 -29.366)" fill="#53a318"/>
      <path id="Path_51" data-name="Path 51" d="M358.494,87.266h66.037a4.762,4.762,0,0,0,0-9.524H358.494a4.762,4.762,0,1,0,0,9.524Zm0,0" transform="translate(-132.19 -29.366)" fill="#53a318"/>
      <path id="Path_52" data-name="Path 52" d="M312.913,113.23h-20.32a4.762,4.762,0,0,0,0,9.524h20.32a4.762,4.762,0,0,0,0-9.524Zm0,0" transform="translate(-107.564 -42.628)" fill="#53a318"/>
      <path id="Path_53" data-name="Path 53" d="M429.292,117.991a4.76,4.76,0,0,0-4.761-4.761H358.494a4.762,4.762,0,1,0,0,9.524h66.037A4.762,4.762,0,0,0,429.292,117.991Zm0,0" transform="translate(-132.19 -42.628)" fill="#53a318"/>
    </g>
    <rect id="Rectangle_50" data-name="Rectangle 50" width="118.176" height="9.675" rx="4.838" transform="translate(714.107 484.112)" fill="#757575"/>
    <rect id="Rectangle_51" data-name="Rectangle 51" width="118.176" height="9.675" rx="4.838" transform="translate(296 484.112)" fill="#757575"/>
  </g>
</svg>
