<svg id="happy" xmlns="http://www.w3.org/2000/svg" width="224" height="224" viewBox="0 0 224 224">
  <path id="Path_1925" data-name="Path 1925" d="M232,148a84,84,0,1,1-84-84A84,84,0,0,1,232,148Zm0,0" transform="translate(-36 -36)" fill="#53a318"/>
  <path id="Path_1926" data-name="Path 1926" d="M142.363,230.8q-4.358,0-8.724-.432A88.35,88.35,0,1,1,216.545,190.6a4.375,4.375,0,1,1-7.332-4.775,79.623,79.623,0,1,0-23.482,23.451,4.375,4.375,0,0,1,4.765,7.338,88.6,88.6,0,0,1-48.134,14.19Zm0,0" transform="translate(-30.429 -30.429)" fill="#d4d1d1"/>
  <path id="Path_1927" data-name="Path 1927" d="M385.844,390.644a4.375,4.375,0,0,1-3.086-7.475l.13-.13a4.375,4.375,0,0,1,6.171,6.2l-.128.128A4.364,4.364,0,0,1,385.844,390.644Zm0,0" transform="translate(-214.576 -214.743)" fill="#d4d1d1"/>
  <path id="Path_1928" data-name="Path 1928" d="M185.859,208.706a4.376,4.376,0,0,1-4.375-4.375,2.74,2.74,0,1,0-5.481,0,4.375,4.375,0,0,1-8.75,0,11.49,11.49,0,1,1,22.981,0A4.375,4.375,0,0,1,185.859,208.706Zm0,0" transform="translate(-94.08 -108.472)" fill="#f7f7f7"/>
  <path id="Path_1929" data-name="Path 1929" d="M316.242,208.706a4.375,4.375,0,0,1-4.375-4.375,2.74,2.74,0,1,0-5.481,0,4.375,4.375,0,0,1-8.75,0,11.49,11.49,0,1,1,22.981,0,4.375,4.375,0,0,1-4.375,4.375Zm0,0" transform="translate(-167.421 -108.472)" fill="#f7f7f7"/>
  <path id="Path_1930" data-name="Path 1930" d="M226.6,319.623a25,25,0,0,1-24.975-24.975,4.375,4.375,0,0,1,8.75,0,16.225,16.225,0,1,0,32.45,0,4.375,4.375,0,1,1,8.75,0A25,25,0,0,1,226.6,319.623Zm0,0" transform="translate(-113.414 -163.279)" fill="#f7f7f7"/>
  <path id="Path_1931" data-name="Path 1931" d="M456.375,14.793A4.375,4.375,0,0,1,452,10.418V4.375a4.375,4.375,0,0,1,8.75,0v6.043A4.375,4.375,0,0,1,456.375,14.793Zm0,0" transform="translate(-254.25)" fill="#53a318"/>
  <path id="Path_1932" data-name="Path 1932" d="M456.375,80.98A4.375,4.375,0,0,1,452,76.605V70.563a4.375,4.375,0,0,1,8.75,0v6.043A4.375,4.375,0,0,1,456.375,80.98Zm0,0" transform="translate(-254.25 -37.23)" fill="#53a318"/>
  <path id="Path_1933" data-name="Path 1933" d="M488.605,48.75h-6.043a4.375,4.375,0,0,1,0-8.75h6.043a4.375,4.375,0,1,1,0,8.75Zm0,0" transform="translate(-268.98 -22.5)" fill="#53a318"/>
  <path id="Path_1934" data-name="Path 1934" d="M422.418,48.75h-6.043a4.375,4.375,0,1,1,0-8.75h6.043a4.375,4.375,0,1,1,0,8.75Zm0,0" transform="translate(-231.75 -22.5)" fill="#53a318"/>
  <path id="Path_1935" data-name="Path 1935" d="M44.375,426.793A4.375,4.375,0,0,1,40,422.418v-6.043a4.375,4.375,0,1,1,8.75,0v6.043A4.375,4.375,0,0,1,44.375,426.793Zm0,0" transform="translate(-22.5 -231.75)" fill="#53a318"/>
  <path id="Path_1936" data-name="Path 1936" d="M44.375,492.98A4.375,4.375,0,0,1,40,488.605v-6.043a4.375,4.375,0,1,1,8.75,0v6.043A4.375,4.375,0,0,1,44.375,492.98Zm0,0" transform="translate(-22.5 -268.98)" fill="#53a318"/>
  <path id="Path_1937" data-name="Path 1937" d="M76.605,460.75H70.563a4.375,4.375,0,0,1,0-8.75h6.043a4.375,4.375,0,0,1,0,8.75Zm0,0" transform="translate(-37.23 -254.25)" fill="#53a318"/>
  <path id="Path_1938" data-name="Path 1938" d="M10.418,460.75H4.375a4.375,4.375,0,0,1,0-8.75h6.043a4.375,4.375,0,0,1,0,8.75Zm0,0" transform="translate(0 -254.25)" fill="#53a318"/>
</svg>
