<svg xmlns="http://www.w3.org/2000/svg" width="80.495" height="66.8" viewBox="0 0 80.495 66.8">
  <g id="laptop" transform="translate(0 -41.7)">
    <g id="Group_978" data-name="Group 978" transform="translate(0 41.7)">
      <path id="Path_2014" data-name="Path 2014" d="M96.426,369.9h-18.9a1.626,1.626,0,0,0,0,3.251h17.5a3.67,3.67,0,0,0,3.448,2.414h10.378a3.67,3.67,0,0,0,3.448-2.414h17.521a1.626,1.626,0,1,0,0-3.251h-18.9a1.619,1.619,0,0,0-1.626,1.626v.361a.435.435,0,0,1-.427.427H98.5a.435.435,0,0,1-.427-.427v-.361A1.643,1.643,0,0,0,96.426,369.9Z" transform="translate(-63.437 -316.007)" fill="#686868"/>
      <path id="Path_2015" data-name="Path 2015" d="M78.869,170.982H74.6V133.526a1.626,1.626,0,1,0-3.251,0v39.082a1.633,1.633,0,0,0,1.642,1.626h4.253v2.233a4.177,4.177,0,0,1-4.171,4.171H7.422a4.177,4.177,0,0,1-4.171-4.171v-2.233H7.5a1.619,1.619,0,0,0,1.626-1.626V133.526a1.626,1.626,0,1,0-3.251,0v37.456H1.626A1.619,1.619,0,0,0,0,172.607v3.859a7.436,7.436,0,0,0,7.422,7.422H73.073a7.436,7.436,0,0,0,7.422-7.422v-3.859A1.619,1.619,0,0,0,78.869,170.982Z" transform="translate(0 -117.088)" fill="#686868"/>
      <path id="Path_2016" data-name="Path 2016" d="M205.1,108.887l-9.376,9.327-3.268-3.284a1.626,1.626,0,0,0-2.3,2.3l4.4,4.434a1.644,1.644,0,0,0,1.149.476,1.673,1.673,0,0,0,1.149-.476L207.4,111.185a1.626,1.626,0,0,0-2.3-2.3Z" transform="translate(-158.529 -97.458)" fill="#53a318"/>
      <path id="Path_2017" data-name="Path 2017" d="M132.693,41.7H92.561A5.971,5.971,0,0,0,86.6,47.661V71.373a5.971,5.971,0,0,0,5.961,5.961h1.691v7.143a2.4,2.4,0,0,0,2.414,2.4,2.356,2.356,0,0,0,1.806-.837l7.521-8.7h26.7a5.971,5.971,0,0,0,5.961-5.961V47.661A5.971,5.971,0,0,0,132.693,41.7ZM135.4,71.373a2.712,2.712,0,0,1-2.709,2.709H105.238a1.61,1.61,0,0,0-1.232.558l-6.519,7.537v-6.47a1.619,1.619,0,0,0-1.626-1.626H92.544a2.712,2.712,0,0,1-2.709-2.709V47.661a2.712,2.712,0,0,1,2.709-2.709h40.133a2.712,2.712,0,0,1,2.709,2.709V71.373Z" transform="translate(-72.38 -41.7)" fill="#686868"/>
    </g>
  </g>
</svg>
