<svg xmlns="http://www.w3.org/2000/svg" width="159.898" height="58.913" viewBox="0 0 159.898 58.913">
  <g id="Group_1" data-name="Group 1" transform="translate(-1447.829 -98.091)">
    <g id="Group_3" data-name="Group 3" transform="translate(1447.829 98.141)">
      <path id="Path_4" data-name="Path 4" d="M1483.452,136.628a11.035,11.035,0,0,0-.394-2.269c-.3-.82-.49-1.67-.838-2.479a19.064,19.064,0,0,0-1.908-3.539,17.647,17.647,0,0,0-7.758-6.23,18.467,18.467,0,0,0-9.916-1.135,15.953,15.953,0,0,0-4.162,1.283c-.388.177-.388.18-.388-.245,0-3.657.013-7.314,0-10.971a18.594,18.594,0,0,0-.161-3.707,13.211,13.211,0,0,0-.564-2.375,10.1,10.1,0,0,0-4.979-5.391h0c-.043-.031-.914-.459-1-.493a9.689,9.689,0,0,0-3.036-.717c-.6-.023-.507-.046-.507.473,0,9.234-.005,18.467.026,27.7.012,3.5-.118,6.992.091,10.486a10.343,10.343,0,0,0,1.117,4.308,9.3,9.3,0,0,0,2.173,2.8,10.191,10.191,0,0,0,7.4,2.478,6.43,6.43,0,0,0,2.987-.862c.541-.323.539-.338.014-.682a7.669,7.669,0,0,1-2.36-10.584,7.044,7.044,0,0,1,2.5-2.446,7.835,7.835,0,0,1,4.927-.991,7.278,7.278,0,0,1,3.348,1.308,8.614,8.614,0,0,1,3.546,6.138,9.7,9.7,0,0,1-.977,5.7,11.164,11.164,0,0,1-5.167,5.081,15.141,15.141,0,0,1-2.752,1.036,18.369,18.369,0,0,1-3.793.6,14.223,14.223,0,0,1-4.426-.426,14.725,14.725,0,0,1-4.87-2.278,18.443,18.443,0,0,1-1.639-1.364c-.111.315.132.457.24.639a17.975,17.975,0,0,0,4.762,5.381,18.84,18.84,0,0,0,3.673,2.137c.779.325,1.576.6,2.369.872a14.013,14.013,0,0,0,4.109.558,18.617,18.617,0,0,0,5.206-.54,15.262,15.262,0,0,0,2.413-.855,12.7,12.7,0,0,0,2.492-1.34,13.251,13.251,0,0,0,1.425-1c.318-.307.652-.6.981-.893a20.685,20.685,0,0,0,1.48-1.456,16.67,16.67,0,0,0,3.264-5.369,6.717,6.717,0,0,0,.509-1.376c.079-.532.281-1.029.331-1.568.081-.867.282-1.724.31-2.6A16.308,16.308,0,0,0,1483.452,136.628Zm-5.069,8.711h0l-.07-.088h0l.066-.064c-.026-.041-.045-.116-.1-.093.052-.023.072.053.1.093l.076.078h0l-.077-.078-.066.064Zm-1.406.888,0,0Z" transform="translate(-1447.829 -98.35)" fill="#53a318"/>
      <path id="Path_5" data-name="Path 5" d="M1610.517,342.678c0,.007.01.015.017.023s.02-.013.02-.02-.01-.015-.017-.023S1610.517,342.671,1610.517,342.678Z" transform="translate(-1578.943 -295.244)" fill="#53a318"/>
    </g>
    <path id="Path_6" data-name="Path 6" d="M1634.209,121.11a4.21,4.21,0,0,1-1.269-3.026,3.435,3.435,0,0,1,1.243-2.928,28.213,28.213,0,0,1,4.417-2.424,32.742,32.742,0,0,0,7.557-4.685,31.544,31.544,0,0,0,5.01-5.508c1.466-2.024,2.409-3.278,2.857-3.74a3.383,3.383,0,0,1,2.5-.708,3.991,3.991,0,0,1,3.317,1.6,7.011,7.011,0,0,1,1.253,4.409v44.708q0,7.859-5.352,7.851a4.873,4.873,0,0,1-3.823-1.6,6.792,6.792,0,0,1-1.449-4.717V114.807q-9.918,7.615-13.357,7.613a3.946,3.946,0,0,1-2.9-1.31Z" transform="translate(-149.186)" fill="#53a318"/>
    <g id="Group_5" data-name="Group 5" transform="translate(1525.363 132.319)">
      <g id="Group_4" data-name="Group 4" transform="translate(0)">
        <path id="Path_7" data-name="Path 7" d="M1851.988,298.39a9.985,9.985,0,0,1-3.5-2.062,2.641,2.641,0,0,1-.594-.953,3.371,3.371,0,0,1-.219-1.2,2.718,2.718,0,0,1,.843-2.015,2.76,2.76,0,0,1,2-.828,2.713,2.713,0,0,1,1.375.359,2.834,2.834,0,0,1,1,.953,4.034,4.034,0,0,0,1.625,1.422,5.162,5.162,0,0,0,2.281.485,4.744,4.744,0,0,0,2.813-.687,2.2,2.2,0,0,0,.938-1.875,2.031,2.031,0,0,0-.625-1.515,4.615,4.615,0,0,0-2.218-.953l-3.844-.813a9.311,9.311,0,0,1-4.921-2.421,6.39,6.39,0,0,1-1.609-4.577,6.532,6.532,0,0,1,1.11-3.719,7.318,7.318,0,0,1,3.234-2.593,12.476,12.476,0,0,1,5.062-.937q4.781,0,7.437,2.5a2.725,2.725,0,0,1,.781,2.062,2.67,2.67,0,0,1-.8,1.937,2.592,2.592,0,0,1-1.921.812,2.565,2.565,0,0,1-1.328-.359,2.983,2.983,0,0,1-.984-.922,3.491,3.491,0,0,0-3.218-1.562,4.152,4.152,0,0,0-2.531.625,1.873,1.873,0,0,0-.812,1.531,2.092,2.092,0,0,0,.64,1.562,4.746,4.746,0,0,0,2.328.969l3.812.812a9.375,9.375,0,0,1,5.093,2.5,6.424,6.424,0,0,1,1.594,4.5,7.5,7.5,0,0,1-1.016,3.859,7.163,7.163,0,0,1-3.3,2.8,15.859,15.859,0,0,1-10.53.312Z" transform="translate(-1847.332 -274.455)" fill="#686868"/>
        <path id="Path_8" data-name="Path 8" d="M1954.822,307.1a6.946,6.946,0,0,1-1.219-4.609l.031-7.468h-.875a1.921,1.921,0,0,1-1.906-1.906,1.868,1.868,0,0,1,.563-1.375,1.832,1.832,0,0,1,1.343-.563h1.062l.125-2.312a2.587,2.587,0,0,1,.828-1.766,2.657,2.657,0,0,1,4.484,1.922v2.156h1.844a1.92,1.92,0,0,1,1.906,1.906,1.869,1.869,0,0,1-.562,1.375,1.835,1.835,0,0,1-1.344.562h-1.719v6.968a2.461,2.461,0,0,0,.547,1.812,2.315,2.315,0,0,0,1.671.531,2.2,2.2,0,0,1,1.219.734,2.095,2.095,0,0,1,.14,2.531,2.184,2.184,0,0,1-.922.765,17.492,17.492,0,0,1-2.968.219Q1956.072,308.585,1954.822,307.1Z" transform="translate(-1930.763 -284.057)" fill="#686868"/>
        <path id="Path_9" data-name="Path 9" d="M2023.983,325.688a7.571,7.571,0,0,1-3.031-3.187,10.74,10.74,0,0,1,.031-9.249,7.722,7.722,0,0,1,3.094-3.187,10.722,10.722,0,0,1,9.686,0,7.528,7.528,0,0,1,3.062,3.187,10,10,0,0,1,1.031,4.593,9.8,9.8,0,0,1-1.078,4.64,7.774,7.774,0,0,1-3.125,3.2,9.725,9.725,0,0,1-4.859,1.156A9.461,9.461,0,0,1,2023.983,325.688Zm7.249-4.28a8.37,8.37,0,0,0,0-7.062,2.822,2.822,0,0,0-4.718-.016,8.331,8.331,0,0,0,.015,7.077,2.6,2.6,0,0,0,2.359,1.281A2.566,2.566,0,0,0,2031.232,321.408Z" transform="translate(-1986.426 -302.222)" fill="#686868"/>
        <path id="Path_10" data-name="Path 10" d="M2123.822,326.545a2.791,2.791,0,0,1-.859-2.047V312.562a2.72,2.72,0,0,1,2.687-2.687,2.62,2.62,0,0,1,1.922.8,2.585,2.585,0,0,1,.8,1.891v.75h.125a6.711,6.711,0,0,1,.953-1.672,4,4,0,0,1,1.141-1.047,2.563,2.563,0,0,1,1.218-.281,2.521,2.521,0,0,1,2.063.8,2.672,2.672,0,0,1,.656,1.734,2.5,2.5,0,0,1-.671,1.719,2.257,2.257,0,0,1-1.765.75,3.422,3.422,0,0,0-1.328.281,2.938,2.938,0,0,0-1.14.844,4.522,4.522,0,0,0-.844,2.937V324.5a2.894,2.894,0,0,1-4.952,2.047Z" transform="translate(-2069.469 -303.001)" fill="#686868"/>
        <path id="Path_11" data-name="Path 11" d="M2186.717,325.751a7.919,7.919,0,0,1-3.187-3.125,9.365,9.365,0,0,1-1.156-4.718,9.8,9.8,0,0,1,1.078-4.64,7.858,7.858,0,0,1,3.078-3.2,9.135,9.135,0,0,1,4.655-1.156,8.961,8.961,0,0,1,4.625,1.141,7.579,7.579,0,0,1,2.921,2.984,8.053,8.053,0,0,1,.985,3.843,2.68,2.68,0,0,1-.594,1.906,2.623,2.623,0,0,1-1.969.625h-9.217a3.792,3.792,0,0,0,1.094,2.437,3.315,3.315,0,0,0,2.406.906,3.263,3.263,0,0,0,1.469-.3,4.069,4.069,0,0,0,1.062-.766,4.407,4.407,0,0,1,.8-.609,1.788,1.788,0,0,1,.891-.2,2.234,2.234,0,0,1,1.656.7,2.393,2.393,0,0,1-.25,3.578,6.8,6.8,0,0,1-2.406,1.2,11.246,11.246,0,0,1-3.343.484A9.533,9.533,0,0,1,2186.717,325.751Zm7.405-9.749a3.543,3.543,0,0,0-.89-2.375,3.056,3.056,0,0,0-4.281,0,3.938,3.938,0,0,0-.985,2.375Z" transform="translate(-2117.35 -302.222)" fill="#686868"/>
      </g>
    </g>
  </g>
</svg>
