<svg xmlns="http://www.w3.org/2000/svg" width="110.335" height="48.341" viewBox="0 0 110.335 48.341">
  <g id="Group_2" data-name="Group 2" transform="translate(-482.829 -514.091)">
    <g id="Group_1" data-name="Group 1" transform="translate(482.829 514.131)">
      <path id="Path_1" data-name="Path 1" d="M511.343,544.989a8.834,8.834,0,0,0-.315-1.816c-.239-.656-.392-1.337-.671-1.984a15.271,15.271,0,0,0-1.527-2.833,14.125,14.125,0,0,0-6.21-4.986,14.781,14.781,0,0,0-7.937-.908,12.775,12.775,0,0,0-3.331,1.027c-.311.141-.311.144-.311-.2,0-2.927.01-5.855,0-8.782a14.9,14.9,0,0,0-.128-2.967,10.6,10.6,0,0,0-.451-1.9,8.084,8.084,0,0,0-3.986-4.315h0c-.035-.025-.731-.367-.8-.394a7.757,7.757,0,0,0-2.43-.574c-.479-.019-.406-.037-.405.379,0,7.391,0,14.781.021,22.172.01,2.8-.094,5.6.073,8.393a8.282,8.282,0,0,0,.894,3.448,7.448,7.448,0,0,0,1.739,2.244,8.157,8.157,0,0,0,5.923,1.983,5.146,5.146,0,0,0,2.391-.69c.433-.258.431-.271.011-.546A6.139,6.139,0,0,1,492,543.27a5.638,5.638,0,0,1,2-1.958,6.272,6.272,0,0,1,3.943-.793,5.825,5.825,0,0,1,2.68,1.047,6.9,6.9,0,0,1,2.838,4.913,7.76,7.76,0,0,1-.782,4.56,8.935,8.935,0,0,1-4.136,4.067,12.121,12.121,0,0,1-2.2.829,14.688,14.688,0,0,1-3.036.478,11.388,11.388,0,0,1-3.543-.341,11.79,11.79,0,0,1-3.9-1.824,14.8,14.8,0,0,1-1.312-1.091c-.089.252.106.366.192.511a14.395,14.395,0,0,0,3.812,4.307,15.072,15.072,0,0,0,2.94,1.71c.623.26,1.261.48,1.9.7a11.214,11.214,0,0,0,3.289.446,14.9,14.9,0,0,0,4.167-.432,12.212,12.212,0,0,0,1.931-.684,10.163,10.163,0,0,0,1.995-1.073,10.626,10.626,0,0,0,1.141-.8c.254-.246.522-.483.785-.715a16.5,16.5,0,0,0,1.185-1.165,13.34,13.34,0,0,0,2.613-4.3,5.371,5.371,0,0,0,.408-1.1c.063-.426.225-.824.265-1.255.065-.694.225-1.38.247-2.079A13.024,13.024,0,0,0,511.343,544.989Zm-4.058,6.973h0l-.056-.07h0l.053-.051c-.02-.033-.036-.093-.078-.075.042-.018.058.042.078.075l.062.062h0l-.062-.062-.053.051Zm-1.125.711,0,0Z" transform="translate(-482.829 -514.35)" fill="#fff"/>
      <path id="Path_2" data-name="Path 2" d="M645.517,758.674c0,.006.008.012.013.018s.015-.01.016-.016-.008-.012-.013-.018S645.517,758.668,645.517,758.674Z" transform="translate(-620.245 -720.707)" fill="#fff"/>
    </g>
    <path id="Path_3" data-name="Path 3" d="M668.956,532.516a3.37,3.37,0,0,1-1.015-2.422,2.749,2.749,0,0,1,1-2.344,22.589,22.589,0,0,1,3.535-1.94,26.208,26.208,0,0,0,6.049-3.75,25.239,25.239,0,0,0,4.01-4.409c1.174-1.62,1.929-2.624,2.287-2.994a2.707,2.707,0,0,1,2-.567,3.2,3.2,0,0,1,2.655,1.282,5.612,5.612,0,0,1,1,3.529v35.785q0,6.291-4.284,6.284a3.9,3.9,0,0,1-3.06-1.283,5.436,5.436,0,0,1-1.16-3.775V527.471q-7.938,6.1-10.691,6.094a3.159,3.159,0,0,1-2.323-1.049Z" transform="translate(-156.356 0)" fill="#fff"/>
    <text id="Store" transform="translate(544.164 557.432)" fill="#fff" font-size="21" font-family="SegoeUI, Segoe UI"><tspan x="0" y="0">Store</tspan></text>
  </g>
</svg>
