<svg xmlns="http://www.w3.org/2000/svg" width="59.061" height="37.922" viewBox="0 0 59.061 37.922">
  <g id="message" transform="translate(0 -91.625)">
    <g id="Group_980" data-name="Group 980" transform="translate(14.168 91.625)">
      <g id="Group_979" data-name="Group 979" transform="translate(0 0)">
        <path id="Path_2018" data-name="Path 2018" d="M167.553,111.571l-6.74-18.219a2.642,2.642,0,0,0-3.4-1.561L124.552,103.95a2.642,2.642,0,0,0-1.561,3.395l6.74,18.219a2.638,2.638,0,0,0,3.4,1.561l32.866-12.159h0A2.646,2.646,0,0,0,167.553,111.571ZM155.611,95.277l-10.195,14.574-17.225-4.43ZM131.732,123.36l-5.846-15.8,13.54,3.483Zm2.863.4,7.515-12.035,3.535.909a1.344,1.344,0,0,0,.329.042,1.324,1.324,0,0,0,1.083-.564l2.092-2.993,13.539,4.247Zm16.144-16.911L158.752,95.4,164.6,111.2Z" transform="translate(-122.825 -91.625)" fill="#686868"/>
      </g>
    </g>
    <g id="Group_982" data-name="Group 982" transform="translate(7.853 125.063)">
      <g id="Group_981" data-name="Group 981">
        <path id="Path_2019" data-name="Path 2019" d="M75.62,382.357a1.321,1.321,0,0,0-1.7-.781l-4.979,1.842a1.321,1.321,0,1,0,.917,2.478l4.979-1.842A1.321,1.321,0,0,0,75.62,382.357Z" transform="translate(-68.081 -381.494)" fill="#686868"/>
      </g>
    </g>
    <g id="Group_984" data-name="Group 984" transform="translate(3.02 112.797)">
      <g id="Group_983" data-name="Group 983" transform="translate(0 0)">
        <path id="Path_2020" data-name="Path 2020" d="M31.816,276.027a1.322,1.322,0,0,0-1.7-.781l-3.073,1.137a1.321,1.321,0,1,0,.917,2.478l3.073-1.137A1.321,1.321,0,0,0,31.816,276.027Z" transform="translate(-26.182 -275.164)" fill="#686868"/>
      </g>
    </g>
    <g id="Group_986" data-name="Group 986" transform="translate(0 122.805)">
      <g id="Group_985" data-name="Group 985">
        <path id="Path_2021" data-name="Path 2021" d="M4.844,362.789a1.321,1.321,0,0,0-1.7-.781l-2.284.845a1.321,1.321,0,1,0,.917,2.478l2.284-.845A1.321,1.321,0,0,0,4.844,362.789Z" transform="translate(0 -361.926)" fill="#686868"/>
      </g>
    </g>
  </g>
</svg>
