<svg xmlns="http://www.w3.org/2000/svg" width="45.14" height="50.367" viewBox="0 0 45.14 50.367">
  <g id="writing" transform="translate(-26.57)">
    <g id="Group_1005" data-name="Group 1005" transform="translate(26.57)">
      <g id="Group_1004" data-name="Group 1004">
        <path id="Path_2022" data-name="Path 2022" d="M130.659,201.967A1.967,1.967,0,0,0,128.691,200H108.426a1.967,1.967,0,1,0,0,3.935h20.265A1.967,1.967,0,0,0,130.659,201.967Z" transform="translate(-98.6 -180.325)" fill="#53a318"/>
        <path id="Path_2023" data-name="Path 2023" d="M108.426,280a1.967,1.967,0,0,0,0,3.935h12.308a1.967,1.967,0,0,0,0-3.935Z" transform="translate(-98.6 -252.456)" fill="#53a318"/>
        <path id="Path_2024" data-name="Path 2024" d="M41.02,46.432H34.44A3.939,3.939,0,0,1,30.5,42.5V7.87A3.939,3.939,0,0,1,34.44,3.935H58.629A3.939,3.939,0,0,1,62.563,7.87v12.1a1.967,1.967,0,1,0,3.935,0V7.87A7.879,7.879,0,0,0,58.629,0H34.44a7.879,7.879,0,0,0-7.87,7.87V42.5a7.879,7.879,0,0,0,7.87,7.87h6.58a1.967,1.967,0,0,0,0-3.935Z" transform="translate(-26.57)" fill="#53a318"/>
        <path id="Path_2025" data-name="Path 2025" d="M265.535,273.75a5.909,5.909,0,0,0-8.346,0l-10.8,10.778a1.968,1.968,0,0,0-.493.821l-2.352,7.744a1.967,1.967,0,0,0,2.408,2.468l7.941-2.2a1.967,1.967,0,0,0,.865-.5L265.535,282.1A5.909,5.909,0,0,0,265.535,273.75Zm-13.193,15.956-4,1.107,1.169-3.849,7.288-7.272,2.783,2.783Zm10.412-10.392-.381.38-2.782-2.782.38-.379a1.968,1.968,0,0,1,2.784,2.781Z" transform="translate(-222.121 -245.264)" fill="#53a318"/>
        <path id="Path_2026" data-name="Path 2026" d="M128.691,120H108.426a1.967,1.967,0,0,0,0,3.935h20.265a1.967,1.967,0,0,0,0-3.935Z" transform="translate(-98.6 -108.195)" fill="#53a318"/>
      </g>
    </g>
  </g>
</svg>
